<?xml version="1.0" standalone="no"?>
<!DOCTYPE svg PUBLIC "-//W3C//DTD SVG 1.1//EN" "http://www.w3.org/Graphics/SVG/1.1/DTD/svg11.dtd" >
<svg xmlns="http://www.w3.org/2000/svg">
<metadata>Generated by IcoMoon</metadata>
<defs>
<font id="icon" horiz-adv-x="512">
<font-face units-per-em="512" ascent="480" descent="-32" />
<missing-glyph horiz-adv-x="512" />
<glyph unicode="&#x20;" d="" horiz-adv-x="256" />
<glyph unicode="&#xe600;" d="M196.601 292.865h-30.709v-30.962h-30.963v-30.708h30.963v-30.963h30.709v30.963h30.962v30.708h-30.962zM417.722 318.502c-61.476 79.752-152.596 5.023-152.596 5.023h-18.903c0 0-91.12 74.729-152.595-5.023s-52.12-205.345-49.608-237.998 23.863-32.654 23.863-32.654h72.216c0 0 15.342 4.404 44.394 48.637 30.333 46.185 41.008 44.929 41.008 44.929h60.351c0 0 10.675 1.255 41.008-44.929 29.053-44.233 44.394-48.637 44.394-48.637h72.216c0 0 21.351 0 23.863 32.654s11.866 158.247-49.608 237.998zM181.647 171.599c-41.791 0-75.67 33.878-75.67 75.67s33.879 75.67 75.67 75.67 75.67-33.879 75.67-75.67-33.879-75.67-75.67-75.67zM334.373 260.498c-8.938 0-16.183 7.246-16.183 16.184s7.246 16.183 16.183 16.183 16.183-7.246 16.183-16.183-7.246-16.184-16.183-16.184zM363.851 200.231c-8.938 0-16.183 7.245-16.183 16.183s7.246 16.184 16.183 16.184 16.183-7.246 16.183-16.184c0-8.938-7.246-16.183-16.183-16.183zM394.507 260.498c-8.938 0-16.183 7.246-16.183 16.184s7.246 16.183 16.183 16.183 16.183-7.246 16.183-16.183-7.246-16.184-16.183-16.184zM424.812 200.231c-8.938 0-16.183 7.245-16.183 16.183s7.246 16.184 16.183 16.184 16.183-7.246 16.183-16.184c0-8.938-7.246-16.183-16.183-16.183z" />
<glyph unicode="&#xe601;" d="M76.674 176.28c-28.466 0-51.542-23.070-51.542-51.529s23.077-51.528 51.542-51.528 51.542 23.070 51.542 51.529-23.076 51.528-51.542 51.528zM439.416 176.28c-28.465 0-51.541-23.070-51.541-51.529s23.077-51.529 51.541-51.529c28.467 0 51.543 23.070 51.543 51.529s-23.075 51.529-51.543 51.529zM512 160.804c0 30.8-21.527 56.555-50.355 63.095l0.012 0.017-74.519 16.779c0 0-0.003-0.014-0.005-0.019-30.981 54.549-92.697 91.747-163.786 91.747-82.493 0-152.363-50.082-176.233-119.25-27.636-10.827-47.115-36.844-47.115-67.235 0-12.671 3.396-24.577 9.345-34.942h9.475c-1.047 4.417-1.617 9.017-1.617 13.755 0 32.836 26.627 59.456 59.471 59.456s59.471-26.62 59.471-59.456c0-4.738-0.57-9.339-1.618-13.755h247.034c-1.046 4.417-1.618 9.017-1.618 13.755 0 32.836 26.625 59.456 59.471 59.456s59.474-26.62 59.474-59.456c0-1.037-0.028-2.067-0.082-3.091 8.274 10.87 13.192 24.43 13.192 39.144zM218.514 228.498h-122.432c19.38 45.795 66.658 78.589 122.431 80.387v-80.387zM232.607 228.498v80.177c53.84-3.341 99.141-35.599 118.008-80.177h-118.008z" />
<glyph unicode="&#xe602;" d="M333.923 445.265l-65.13-157.508h195.667c0 76.563-55.706 140.698-130.537 157.508zM105.832 350.695c-5.099 10.208-15.643 17.223-27.831 17.223-17.175 0-31.099-13.923-31.099-31.099s13.924-31.098 31.099-31.098c8.945 0 17.003 3.783 22.677 9.828 15.287-8.701 25.603-25.127 25.603-43.974h-0.021c8.506-81.77 80.778-145.632 168.679-145.632s160.173 63.863 168.679 145.633h-303.265c-0.001 36.137-22.648 66.977-54.522 79.12zM199.348 144.146c-31.032 0-56.189-25.156-56.189-56.189s25.157-56.189 56.189-56.189 56.189 25.156 56.189 56.189-25.157 56.189-56.189 56.189zM199.348 58.018c-16.535 0-29.939 13.404-29.939 29.938s13.405 29.938 29.939 29.938 29.939-13.404 29.939-29.938-13.404-29.938-29.939-29.938zM391.349 144.146c-31.031 0-56.189-25.156-56.189-56.189s25.157-56.189 56.189-56.189 56.189 25.156 56.189 56.189-25.157 56.189-56.189 56.189zM391.349 58.018c-16.534 0-29.938 13.404-29.938 29.938s13.404 29.938 29.938 29.938 29.938-13.404 29.938-29.938-13.404-29.938-29.938-29.938z" />
<glyph unicode="&#xe603;" d="M368.709 241.172c24.76 0 47.687-7.688 66.433-20.761 13.555 17.44 21.635 39.346 21.635 63.144 0 56.887-46.115 103.003-103.002 103.003-45.923 0-84.822-30.056-98.111-71.569-13.29 41.512-52.188 71.569-98.11 71.569-56.887 0-103.002-46.115-103.002-103.003 0-29.967 12.802-56.94 33.229-75.764l-0.007-0.005 167.889-165.312 20.362 20.050c-13.846 18.576-22.024 41.466-22.024 66.231 0 62.084 51.356 112.413 114.707 112.413zM396.918 214.517h-57.369v-57.336h-57.336v-57.369h57.336v-57.336h57.369v57.336h57.336v57.369h-57.336z" />
<glyph unicode="&#xe604;" d="M28.103 419.995h454.517v-40.298h-454.517v40.298zM28.103 246.832h454.517v-40.297h-454.517v40.297zM28.103 73.667h454.517v-40.298h-454.517v40.298z" />
<glyph unicode="&#xe605;" d="M473.888 31.198l-123.995 123.996c22.046 29.083 35.133 65.332 35.133 104.639 0 95.766-77.633 173.399-173.399 173.399s-173.398-77.633-173.398-173.398c0-95.764 77.632-173.397 173.398-173.397 42.447 0 81.325 15.26 111.466 40.584l123.307-123.307 27.489 27.485zM80.091 259.833c0 72.645 58.89 131.536 131.536 131.536s131.535-58.891 131.535-131.536-58.888-131.534-131.535-131.534c-72.645-0.001-131.536 58.889-131.536 131.535z" />
<glyph unicode="&#xe606;" d="M355.168 214.313c26.039 25.635 42.192 61.284 42.192 100.711 0 78.054-63.274 141.329-141.328 141.329s-141.327-63.275-141.327-141.329c0-39.427 16.15-75.076 42.19-100.711-64.675-35.196-108.579-103.74-108.579-182.553 0-10.389 0.773-20.596 2.245-30.575h410.943c1.473 9.979 2.246 20.187 2.246 30.575 0.001 78.813-43.903 147.357-108.58 182.553zM141.863 315.024c0 63.054 51.116 114.169 114.168 114.169 63.054 0 114.17-51.115 114.17-114.169s-51.115-114.168-114.169-114.168c-63.053 0-114.168 51.115-114.168 114.168zM76.507 29.245c-0.011 0.838-0.027 1.675-0.027 2.514 0 72.495 42.969 134.946 104.824 163.298 21.68-13.533 47.287-21.362 74.729-21.362s53.047 7.828 74.727 21.361c61.856-28.352 104.825-90.803 104.825-163.296 0-0.841-0.015-1.676-0.027-2.514h-359.050z" />
<glyph unicode="&#xe607;" d="M154.934 48.682c0-18.746-15.168-33.914-33.913-33.914s-33.915 15.168-33.915 33.914c0 18.712 15.168 33.914 33.915 33.914 18.745 0 33.913-15.203 33.913-33.914zM392.334 48.682c0-18.746-15.168-33.914-33.914-33.914s-33.914 15.168-33.914 33.914c0 18.712 15.17 33.914 33.914 33.914 18.746 0 33.914-15.203 33.914-33.914zM154.934 319.995c0 18.745-15.168 33.914-33.913 33.914h-101.743v-33.914h67.828v-203.485h305.228l33.914 67.828h-271.314v135.657zM188.849 218.253h254.357l16.957 33.914h-271.313zM188.849 319.995v-33.913h288.271l16.957 33.913z" />
<glyph unicode="&#xe608;" d="M449.654 227.271v-129.102h-32.276v-36.5l-54.781 36.5h-138.874v129.102h225.931zM449.654 259.547h-225.931c-17.84 0-32.276-14.437-32.276-32.277v-129.102c0-17.839 14.436-32.276 32.276-32.276h129.105l96.827-64.553v64.553c17.839 0 32.276 14.437 32.276 32.276v129.102c0 17.84-14.437 32.277-32.276 32.277v0zM223.724 291.823h129.104v32.277c0 35.49-29.061 64.55-64.553 64.55h-193.654c-35.49 0-64.552-29.061-64.552-64.55v-64.553c0-23.703 13.112-44.317 32.276-55.537v-73.567l96.828 64.552v32.276c0 35.586 28.933 64.553 64.55 64.553z" />
<glyph unicode="&#xe609;" d="M256.033 447.966l53.851-165.453 173.995-0.088-140.714-102.344 53.685-165.505-140.818 102.198-140.817-102.198 53.685 165.505-140.714 102.344 173.996 0.087z" />
<glyph unicode="&#xe60a;" d="M502.791 450.308c-10.241-3.612-517.181-182.227-527.154-185.75-8.48-2.986-10.391-10.301-0.299-14.302 11.973-4.808 113.343-45.415 113.343-45.415h-0.030l67.212-26.933c0 0 323.577 237.644 327.967 240.839 4.389 3.226 9.495-2.836 6.3-6.3-3.194-3.492-235.017-254.216-235.017-254.216-0.030 0-0.030 0-0.030 0l-13.496-15.049 17.885-9.614c0 0 138.842-74.737 148.726-80.080 8.659-4.658 19.946-0.776 22.453 10.002 2.957 12.719 84.948 366.126 86.769 373.949 2.389 10.242-4.359 16.482-14.63 12.869zM155.267 16.553c0-7.375 4.15-9.406 9.883-4.21 7.464 6.808 85.067 76.439 85.067 76.439l-94.95 49.147v-121.375z" />
<glyph unicode="&#xe60b;" d="M430.25 348.332c0-29.37-23.81-53.179-53.18-53.179s-53.18 23.809-53.18 53.179c0 29.37 23.81 53.179 53.18 53.179s53.18-23.809 53.18-53.179zM437.224 293.937c-7.375-8.149-16.384-14.793-26.508-19.416 3.991-14.020 6.127-28.82 6.127-44.119 0-88.833-72.012-160.845-160.844-160.845s-160.844 72.012-160.844 160.845c0 88.831 72.012 160.843 160.844 160.843 16.783 0 32.962-2.574 48.172-7.342 4.882 9.987 11.756 18.822 20.104 25.989-21.216 8.074-44.226 12.51-68.276 12.51-106.038 0-192-85.962-192-192 0-106.041 85.962-192.001 192-192.001s192 85.962 192 192.001c0 22.27-3.804 43.647-10.776 63.536z" />
<glyph unicode="&#xe60c;" d="M478.848 304.458c-3.288 0.936-6.298 2.202-9.841 2.725-13.074 1.937-21.046 8.587-31.558 12.875-4.81 1.961-10.471 3.293-14.645 5.27-5.337 2.533-11.416 4.067-17.212 5.846-5.409 1.659-12.067 2.201-18.548 2.387-5.988 0.169-13.636-5.683-11.849-11.146 2-6.134 5.331-11.844 8.226-17.683 3.4-6.863 7.54-13.466 10.162-20.587 1.096-2.975 0.993-5.795-2.703-9.613-1.043-1.079-4.135-3.926-5.928-3.876-11.641-1.382-22.258-5.574-32.997-4.439-4.421 0.466-7.731-1.882-11.884-0.844-1.716 0.428-4.335-1.148-6.516-1.306-2.507-8.203-2.888-6.911 7.212-8.573 13.091 1.675 21.731 2.316 33.678 5.97 15.769-0.143 29.363 11.608 26.776 21.999-2.296 9.19-8.25 16.738-14.332 24.327-4.293 5.357-7.954 11.166-2.938 20.157 7.036-1.139 14.45-1.638 20.652-3.477 18.286-5.423 34.367-12.916 50.228-20.671 5.577-2.726 13.793-3.891 21.541-3.944 8.295-0.059 14.995 5.632 14.664 14.213-0.5 12.709-7.675 23.034-14.806 33.292-5.57 8.009-12.123 15.57-18.091 23.401-2.713 3.556-6.42 6.459-10.156 9.423-3.154 2.506-4.84 5.934-7.392 8.84-1.352 1.536-3.173 2.827-4.78 4.228 0.572 0.495 1.149 0.989 1.721 1.484 11.186-3.298 22.366-6.596 33.292-9.813 5.286 3.956 3.922 5.646 0.204 6.456-5.942 1.287-12.325 2.039-18.015 3.599-5.952 1.634-11.473 3.796-16.864 6.023-3.961 1.637-7.255 3.891-11.173 5.57-1.161 0.494-4.151 0.433-5.054-0.205-1.408-0.989-2.684-2.972-2.401-4.054 3.75-14.415 5.327-29.279 2.959-45.003-0.613-4.034-1.673-8.168-1.485-12.038 0.11-2.221 2.327-4.005 3.591-5.982 1.601 2.277 4.332 4.7 4.608 6.812 1.466 11.154 2.301 22.228 3.389 33.339 0.166 1.658 0.512 3.344 0.774 5.017 0.685 0.354 1.373 0.71 2.058 1.065 2.34-2.1 4.913-4.076 6.978-6.325 8.104-8.837 16.723-17.433 23.877-26.735 9.019-11.726 18.938-23.233 19.969-38.135 0.188-2.693-1.637-5.824-2.531-8.755-0.954-0.371-1.911-0.743-2.863-1.115zM27.774 203.048l-4.852 3.805c4.527 4.761 8.712 9.774 12.557 15.041-1.257 2.845-2.99 5.512-5.206 8.009-0.337-0.462-0.823-1.244-1.456-2.356-0.501-0.688-1.559-2.374-3.165-5.057l-5.058 3.163c2.005 2.748 4.010 5.494 6.014 8.241-2.153 2.096-4.361 3.881-6.616 5.355l2.822 5.309c2.715-1.81 5.134-3.663 7.256-5.56 2.005 2.746 3.964 5.79 5.874 9.13l5.057-3.166c-0.639-1.116-1.81-2.715-3.508-4.805-1.473-2.26-2.628-3.961-3.462-5.102 5.957-6.98 9.6-14.728 10.928-23.237 2.575-15.217-0.603-23.412-9.541-24.61-1.188-0.185-2.295-0.252-3.313-0.212l-0.677 6.283c0.82-0.077 2.023 0.012 3.61 0.259 4.322 0.874 5.795 6.38 4.42 16.507-0.278 1.783-0.786 3.727-1.522 5.848-3.602-4.213-6.992-8.498-10.163-12.843zM52.85 219.738l-0.287 5.734c3.519-0.47 6.566-0.496 9.141-0.094 0.789 0.123 1.111 0.677 0.956 1.671-0.154 0.988-0.73 2.724-1.725 5.206 0.871-1.688 0.724-1.408-0.436 0.845-4.556-0.712-10.029-1.367-16.426-1.956l-0.287 5.736c4.445 0.086 9.063 0.398 13.846 0.945 5.352 4.685 7.94 8.236 7.768 10.643-0.123 0.788-1.178 1.033-3.156 0.725-4.127-0.848-8.974-2.923-14.542-6.225l-2.959 5.317c6.162 3.395 11.813 5.495 16.964 6.299 5.77 0.696 9.049-0.821 9.836-4.549 0.463-2.97-1.372-6.805-5.505-11.505 7.189 0.713 12.267 1.306 15.237 1.77l0.24-5.438c-4.055-0.024-8.965-0.387-14.736-1.083 0.965-2.282 1.5-4.433 1.614-6.44 1.106-4.494-0.848-6.929-5.856-7.301-2.773-0.436-5.999-0.538-9.687-0.3zM48.876 188.699l-1.336 4.658 5.002 1.086c-2.015 9.010-3.87 16.325-5.556 21.947l5.252 1.428 0.806-3.219c6.224 2.995 12.403 4.978 18.541 5.936 7.26 1.537 11.076-0.809 11.441-7.035 0.659-2.938 0.739-6.68 0.231-11.219 0.564 0.287 1.439 0.529 2.626 0.714 1.158 0.38 2.032 0.622 2.627 0.714l1.335-4.658c-1.951-0.505-4.874-1.264-8.769-2.281-13.507-3.121-24.242-5.81-32.202-8.070zM65.757 201.373l-4.956-1.382c-0.508 1.945-1.397 5.053-2.672 9.315 0.827-2.713 0.653-2.231-0.529 1.44-0.398-0.063-0.961-0.355-1.689-0.873-0.762-0.322-1.325-0.616-1.689-0.872 1.075-4.295 2.267-8.673 3.571-13.13 2.94 0.659 7.23 1.736 12.881 3.227 2.939 0.659 5.084 1.197 6.441 1.613 0.694 3.351 0.746 6.909 0.159 10.672-0.132 3.425-2.047 4.647-5.744 3.666l-0.594-0.093c0.981-3.701 2.164-7.37 3.544-11.006l-4.956-1.382c-1.212 3.865-2.409 7.632-3.59 11.303-0.399-0.062-0.977-0.257-1.736-0.575-0.794-0.125-1.372-0.319-1.735-0.575 0.719-3.336 1.819-7.119 3.292-11.348zM113.653 241.399l-5.002-1.085c0.663 3.55 0.566 7.389-0.278 11.517-0.113 2.006-1.144 2.76-3.090 2.255-2.181-0.34-4.294-1.079-6.347-2.207l-1.883 4.27c2.815 1.452 5.605 2.395 8.379 2.828 4.29 1.074 6.741-0.977 7.349-6.153 0.557-3.565 0.847-7.373 0.871-11.424zM106.388 250.911l-0.242-4.297c-2.5 0.419-5.040 0.431-7.609 0.029l-0.306 3.906c0.594 0.094 1.501 0.13 2.719 0.121 2.439-0.027 4.25 0.056 5.439 0.241zM101.895 236.825l-3.48 2.804c1.065 0.974 2.66 2.44 4.789 4.397 0.896 0.749 1.612 1.363 2.144 1.856l2.885-2.897c-0.7-0.717-1.764-1.696-3.192-2.931-1.401-1.436-2.451-2.511-3.147-3.228zM103.32 212.104l-4.871 1.977c3.988 6.905 7.916 15.534 11.778 25.869l4.873-1.977c-0.136-0.43-0.439-1.085-0.909-1.967-0.275-0.856-0.577-1.511-0.909-1.968 0.594 0.093 1.582 0.246 2.971 0.464 1.219-0.014 2.125 0.028 2.719 0.121-0.979 1.064-2.153 2.096-3.525 3.1l3.397 3.572c1.953-2.127 3.778-4.077 5.475-5.837 0.788 0.123 1.766 0.375 2.924 0.761 0.988 0.155 1.782 0.278 2.375 0.37l0.742-4.751-5.939-0.927c0.156-0.994 0.324-2.079 0.51-3.267 1.751 0.472 3.471 1.15 5.159 2.022l1.633-4.612c-2.345-0.571-4.463-1.306-6.348-2.208l0.695-4.454 5.595 1.178 0.834-5.344-5.642-0.882c0.381-1.157 0.668-2.328 0.853-3.517 1.946 0.504 3.866 1.212 5.753 2.116l1.93-4.567-17.993-5.547-1.586 4.314c1.915 0.702 4.049 1.34 6.394 1.911-0.093 0.594-0.118 1.398-0.074 2.422-0.154 0.99-0.262 1.679-0.324 2.080-1.782-0.279-3.665-0.572-5.642-0.882l-0.788 5.048c1.976 0.309 3.86 0.603 5.642 0.882l-0.603 3.859c-0.594-0.093-1.454-0.432-2.58-1.010-1.356-0.416-2.314-0.771-2.876-1.058l-1.335 4.659c0.394 0.060 1.071 0.266 2.033 0.621 1.945 0.503 3.302 0.919 4.064 1.242-0.216 1.382-0.433 2.77-0.65 4.158-1.782-0.278-3.763-0.587-5.94-0.927l-0.51 3.267c-0.91-1.967-1.737-3.821-2.478-5.558l0.594 0.093c1.802-10.266 3.706-19.194 5.703-26.791l-5.299-1.132c-0.663 2.938-1.543 7.259-2.635 12.973-0.725 3.332-1.224 5.892-1.503 7.673-1.046-2.398-2.274-4.918-3.686-7.572zM129.855 240.887l-5.188 0.103c0.495 3.318 0.296 7.85-0.602 13.595-0.34 2.175-1.385 3.025-3.135 2.552-1.782-0.279-3.42-0.839-4.909-1.679l-1.883 4.269c2.254 1.161 4.464 1.913 6.644 2.254 4.884 1.168 7.565-1.052 8.035-6.654 0.496-3.17 0.837-7.983 1.037-14.44zM121.987 254.26l0.305-3.907c-1.022 0.040-2.734-0.023-5.141-0.194-1.023 0.040-1.828 0.019-2.422-0.074l-0.305 3.907c2.663-0.192 5.188-0.104 7.563 0.268zM118.84 241.296l-3.23 3.145c2.191 1.56 4.15 3.282 5.885 5.178l2.84-2.599c-1.766-1.696-3.597-3.601-5.495-5.724zM139.501 208.324l-4.463 3.257c3.14 4.543 5.905 8.931 8.288 13.157-1.899 4.365-3.726 9.556-5.474 15.571-0.762-0.323-1.904-0.806-3.424-1.447-1.157-0.387-2.119-0.739-2.877-1.058l-1.429 5.251c2.509 0.796 4.643 1.433 6.394 1.91-0.155 0.989-0.504 2.555-1.038 4.706-1.357 6.071-2.34 11.088-2.958 15.052l5.298 1.131c1.113-7.127 2.298-13.434 3.561-18.912 3.071 1.088 5.933 2.243 8.584 3.47l1.429-5.251c-2.149-0.541-4.858-1.368-8.13-2.487 0.394 0.061 0.113-0.088-0.845-0.435 1.305-4.463 2.727-8.397 4.276-11.804 0.165 0.226 0.318 0.554 0.454 0.983 1.442 2.454 3.002 5.436 4.687 8.946l4.416-2.96c-0.336-0.463-0.822-1.245-1.457-2.357-1.216-2.623-3.026-5.948-5.44-9.974 3.428-6.362 8.015-11.73 13.769-16.102l-4.102-4.899c-5.802 5.985-10.067 11.203-12.786 15.646-0.47-0.885-1.278-2.229-2.413-4.026-0.667-0.918-2.109-3.372-4.323-7.368zM159.838 249.522l-3.304-4.166c-3.525 3.101-7.235 6.066-11.125 8.909l2.96 4.418c0.688-0.502 1.732-1.356 3.137-2.552 3.496-2.906 6.273-5.106 8.333-6.609zM173.905 243.201l1.494 6.012c10.56-1.393 15.935-4.005 16.127-7.825 0.38-1.156-0.054-3.559-1.31-7.201-1.060-3.617-1.319-6.495-0.78-8.639 1.645-6.639 9.805-8.916 24.488-6.822 9.072 1.615 17.007 4.072 23.793 7.364l1.726-5.205c-7.944-3.674-16.29-6.089-25.029-7.254-19.035-2.767-29.412 0.679-31.122 10.349-0.464 2.97-0.216 6.554 0.752 10.764 0.786 2.756 1.030 4.421 0.744 4.982-0.645 1.52-4.273 2.679-10.883 3.472zM191.892 262.435l-2.617-4.667c-0.231 0.164-0.46 0.33-0.688 0.501-4.683 2.716-8.437 4.662-11.255 5.847l2.869 5.012c2.714-1.811 6.609-4.041 11.691-6.693zM192.438 253.091l-1.178 5.596c2.739 0.627 6.471 1.413 11.191 2.356 3.302 0.92 5.744 1.505 7.332 1.753-2.963 3.388-5.911 6.681-8.843 9.875l4.241 4.008c3.056-3.986 6.619-7.994 10.698-12.019 1.946 0.504 5.069 1.294 9.363 2.375 1.946 0.504 3.399 0.936 4.361 1.29l1.429-5.252c-12.716-3.002-25.582-6.327-38.596-9.98zM205.24 219.804l-5.4 3.414c4.496 4.961 8.204 9.798 11.119 14.513-1.178 1.033-3.12 2.449-5.836 4.26-2.52 1.835-4.447 3.155-5.79 3.963l3.166 5.058c4.12-3.007 7.994-5.749 11.625-8.223 2.987 5.534 5.505 11.506 7.547 17.908l5.809-2.134c-2.211-6.633-5.093-12.863-8.641-18.687 5.625-3.585 11.067-6.59 16.312-9.012l-3.165-5.058c-5.276 2.621-10.615 5.643-16.015 9.058-3.147-4.552-6.722-9.567-10.731-15.061zM261.067 238.254l-1.27 6.19c2.176 0.339 5.459 0.748 9.845 1.233 4.551 0.71 7.932 1.133 10.143 1.279-0.37 2.376-0.726 4.649-1.067 6.83l-2.079-0.324c-12.734-1.585-19.793 2.081-21.184 10.99-0.292 7.049 0.449 13.349 2.22 18.901l5.716-1.54c-0.137-0.431-0.358-0.968-0.659-1.625 8.507 3.962 16.519 6.533 24.044 7.708 10.856 1.894 16.865-1.526 18.029-10.264 0.953-9.994-5.795-17.436-20.24-22.326 0.123-0.793 0.31-1.98 0.557-3.563 0.442-1.556 0.745-2.825 0.899-3.814 2.375 0.37 5.939 0.927 10.69 1.669 4.721 0.938 8.365 1.611 10.94 2.013l0.928-5.939c-7.356-0.949-14.597-1.974-21.724-3.087l2.124-9.708c8.416 1.923 17.007 4.072 25.76 6.456l1.522-5.846c-1.587-0.248-4.045-0.732-7.377-1.456-21.594-4.588-38.514-8.545-50.77-11.88l-1.818 5.799c9.072 1.615 17.724 3.376 25.947 5.268-0.154 0.989-0.417 2.673-0.788 5.048-0.176 2.406-0.353 4.203-0.538 5.393-6.5-1.22-13.122-2.355-19.849-3.405zM273.934 278.591c-4.995-1.796-9.081-3.548-12.259-5.259-0.014-1.22-0.156-2.259-0.427-3.108 2.8 0.232 7.469 0.862 14.002 1.882-0.093 0.594-0.247 1.582-0.464 2.97-0.447 1.55-0.729 2.723-0.853 3.516zM276.308 259.492l1.486 0.232c-0.571 2.345-1.023 4.603-1.363 6.784-5.151-0.804-9.998-1.561-14.55-2.272 1.899-4.369 6.707-5.95 14.428-4.744zM291.584 274.654l0.333-6.032c-2.805-0.238-5.986-0.631-9.548-1.186 0.309-1.981 0.633-4.060 0.973-6.235 10.152 3.814 14.914 9.019 14.293 15.615-0.348 4.813-3.671 6.623-9.975 5.439-2.181-0.34-4.622-0.926-7.332-1.752 0.371-2.376 0.773-4.951 1.205-7.721 3.759 0.586 7.112 1.208 10.050 1.873zM30.758 100.551l-4.922 1.909c3.904 8.233 6.623 17.825 8.163 28.774l-0.95-0.148c-7.151-0.958-10.992 1.284-11.514 6.717-0.297 1.9-0.037 4.377 0.788 7.425l5.174-0.408c-0.654-2.050-0.992-4.048-1.011-6 0.445-2.85 2.486-3.991 6.132-3.422l1.9 0.296c0.617 6.423 0.788 11.56 0.514 15.411l4.989 0.779c0.022-5.351-0.24-10.421-0.788-15.211 6.102 1.44 11.618 3.519 16.547 6.234l1.892-4.329c-6.964-3.198-13.354-5.411-19.161-6.642-1.569-11.765-4.156-22.226-7.753-31.385zM69.822 109.084l-2.77-4.083c-2.332 1.423-6.291 3.399-11.877 5.933-2.214-2.457-6.41-5.704-12.591-9.752l-3.444 3.355c4.795 2.533 8.725 5.416 11.79 8.654-3.356 1.748-6.619 3.428-9.791 5.042l2.569 3.808c1.939-0.997 5.373-2.731 10.303-5.204 2.295 2.952 3.26 5.619 2.888 7.995-0.407 1.557-2.194 2.091-5.36 1.596-2.85-0.445-6.001-1.587-9.443-3.421l-2.532 3.743c3.685 2.358 7.522 3.768 11.507 4.231 6.517 0.853 10.267-0.832 11.254-5.058 0.626-2.986-0.73-6.769-4.069-11.343 4.063-2.126 7.918-3.959 11.566-5.495zM65.587 139.328l-4.053-2.092c-3.401 5.146-5.96 8.56-7.682 10.238l3.705 2.769c3.224-4.039 5.902-7.68 8.030-10.914zM91.919 143.683l-2.918-3.132c-2.555 2.844-5.4 5.483-8.537 7.915l3.192 2.932c2.138-2.263 4.892-4.834 8.263-7.714zM81.569 128.926l-0.029 4.863c8.201 0.467 12.189-1.182 11.966-4.947 0.198-1.269 0.273-2.798 0.23-4.588 0.025-0.16 0.063-0.397 0.112-0.712-0.097-1.476-0.043-2.846 0.156-4.113 0.469-3.010 3.659-4.216 9.57-3.617 0.63 0.099 1.106 0.173 1.425 0.222 10.269 1.763 19.701 4.209 28.299 7.339l1.582-3.892c-10.656-3.447-20.169-5.906-28.537-7.375-10.588-1.813-16.156 0.074-16.703 5.666-0.148 0.95-0.227 2.476-0.23 4.588-0.097-1.476-0.133-1.238-0.111 0.712-0.041 1.291-0.158 2.57-0.356 3.838 0.128 2.291-2.33 2.962-7.372 2.014zM108.148 153.517l-2.992-2.657c3.275 0.836 6.406 1.567 9.391 2.197l-3.549 0.906c1.587 3.328 2.743 6.834 3.468 10.519l4.336-1.27c-1.091-3.418-2.284-6.684-3.579-9.806 2.667 0.576 5.23 1.303 7.691 2.174l1.142-4.202-11.254-2.73c-0.086-0.5-0.212-1.25-0.379-2.25-0.278-1.343-0.751-3.524-1.412-6.548 5.992 1.096 11.87 2.421 17.631 3.97l1.143-4.202c-6.627-1.199-13.085-2.451-19.369-3.754-1.002-5.024-2.328-11.072-3.981-18.144l-4.974 0.685c1.9 5.486 3.235 10.969 4.004 16.442-2.825-0.605-5.721-1.3-8.678-2.086l-1.18 4.44c3.641 0.569 7.205 1.125 10.69 1.669 0.53 2.841 0.978 5.666 1.352 8.486-3.596-0.888-7.016-1.825-10.267-2.82l-1.417 4.402c3.007 0.471 5.915 1.084 8.715 1.847-0.184 0.132-0.38 0.345-0.586 0.639-2.555 2.845-4.838 5.002-6.852 6.474l2.992 2.657c3.050-2.932 5.691-5.281 7.912-7.041zM129.69 126.217l-2.843-3.607c-0.918 0.668-2.382 1.735-4.394 3.208-3.505 2.697-6.341 4.767-8.514 6.215l3.118 3.406c3.758-3.307 7.969-6.384 12.633-9.223zM155.876 154.885l2.769-3.704c-6.927-4.488-10.737-8.654-11.434-12.493 0.148-0.95 0.775-1.339 1.885-1.166 2.802 0.762 5.868 2.942 9.199 6.546l3.333-2.644c-3.976-4.679-8.156-7.521-12.54-8.528-3.375-0.204-5.548 1.241-6.518 4.336-0.239 2.557 0.847 5.486 3.253 8.783-3.148 1.455-4.988 3.358-5.516 5.709-1.291 5.151 3.071 10.456 13.090 15.913l2.731-3.466c-7.927-4.322-11.638-8.065-11.144-11.231 0.063-1.452 1.383-2.625 3.957-3.521 1.945 2.088 4.257 3.909 6.935 5.464zM146.941 120.151l-2.22 3.303c1.483 0.877 4.005 2.409 7.558 4.586 3.578 2.019 6.108 3.468 7.595 4.349l2.294-3.779c-4.505-2.325-9.582-5.145-15.227-8.459zM161.784 145.1l-4.335 1.27c4.718 10.308 8.396 19.478 11.035 27.519l4.097-1.307c-0.654-2.050-1.344-3.86-2.071-5.434 6.22-2.435 12.428-4.793 18.625-7.070l-1.508-4.373c-7.113 2.943-13.375 5.129-18.788 6.558-0.327-1.024-0.976-2.586-1.946-4.683-0.813-2.075-1.463-3.636-1.946-4.685 5.25 0.656 11.346 1.608 18.292 2.856l0.504-4.788c-6.226-0.649-12.563-1.638-19.004-2.966l-0.519 3.326c-0.655-2.048-1.47-4.123-2.438-6.221zM165.057 144.396l4.611-1.471c-0.135-0.184-0.322-0.538-0.565-1.061 3.129 1.786 5.88 2.865 8.256 3.236 6.653 1.038 10.46-1.531 11.424-7.708 1.176-8.576-3.068-13.62-12.726-15.127-7.311-0.978-11.603 2.082-12.871 9.183-0.438 3.825 0.189 8.139 1.871 12.948zM178.412 139.909c-3.326-0.519-7.023-2.314-11.084-5.38-0.036-0.82 0.022-1.702 0.17-2.651 0.508-4.301 3.205-5.991 8.091-5.063 6.333 0.989 9.185 4.029 8.554 9.123-0.364 3.349-2.274 4.671-5.731 3.973zM201.472 160.544l-2.293 3.779c4.004 2.409 7.664 4.928 10.987 7.555l2.531-3.74c-3.713-2.204-7.454-4.734-11.226-7.594zM216.531 129.555l-4.476-0.941c-1.088 6.966-2.413 13.897-3.977 20.793-1.362-1.673-2.803-3.357-4.321-5.055l-2.931 3.192c4.388 4.091 8.427 8.373 12.11 12.841l3.132-2.917c-1.227-1.493-2.561-2.833-3.994-4.031 1.335-8.551 2.822-16.514 4.459-23.882zM221.021 181.848l4.038 0.63c0.756-5.887 1.572-11.112 2.448-15.679 1.056 0.488 2.252 1.161 3.578 2.019-0.703 3.456-1.6 7.131-2.693 11.016l3.801 0.594c0.65-3.144 1.698-7.764 3.138-13.866 0.328-1.086 0.534-1.863 0.608-2.339l-3.801-0.594c-0.049 0.316-0.099 0.632-0.148 0.951-3.078-2.104-6.44-3.439-10.083-4.008-4.12-0.643-6.634 1.964-7.549 7.825-0.445 2.85-0.44 5.93 0.017 9.248l4.225-0.557c-0.423-2.499-0.422-5.096-0.001-7.786 0.544-3.486 1.673-5.013 3.392-4.582 0.631 0.099 1.188 0.186 1.662 0.26-0.649 6.226-1.526 11.847-2.635 16.868zM216.809 152.716l-0.631 4.039c2.375 0.37 5.845 0.993 10.416 1.868 4.431 0.692 7.757 1.212 9.977 1.559 1.165 8.129 1.994 14.748 2.497 19.858l4.462-0.519c-0.505-2.999-1.011-6-1.516-8.998 1.106 0.173 2.637 0.248 4.588 0.231 2.082 0.161 3.613 0.236 4.588 0.229l0.119-3.875c-3.085 0.005-6.3-0.173-9.65-0.534-0.171-0.999-0.399-2.659-0.684-4.973-0.313-2.161-0.541-3.82-0.684-4.975l-2.213 0.141 0.037-0.236c-0.95-0.148-2.298-0.358-4.038-0.63-7.786-1.055-13.541-2.113-17.268-3.183zM257.623 139.135l-2.755-2.62c-0.783 0.851-2.021 2.034-3.719 3.557-1.542 1.543-2.78 2.728-3.719 3.557-0.98-3.074-2.156-5.933-3.526-8.582l-3.549 0.906 0.482-3.087c-1.11-0.173-2.375-0.371-3.8-0.594-3.145-0.651-4.847 0.38-5.107 3.097-0.198 1.264-0.101 3.226 0.297 5.887 0.129 2.291 0.107 3.99-0.066 5.1-0.222 1.425-0.968 2.039-2.234 1.841-1.426-0.223-3.186-0.904-5.279-2.042 0.069-3.558 0.123-8.582 0.161-15.062 0.012-1.132 0.059-1.938 0.133-2.412l-4.387 0.045c0.216 5.875 0.165 13.49-0.161 22.851l4.424-0.283 0.075-0.475c2.117 0.977 3.968 1.593 5.553 1.841 3.482 0.543 5.461-0.692 5.93-3.698 0.223-1.426 0.147-3.548-0.223-6.363-0.339-1.998-0.381-3.792-0.133-5.375 0.148-0.951 0.935-1.314 2.36-1.092 0.156 0.024 0.394 0.062 0.714 0.111 0.452 0.231 0.832 0.374 1.15 0.425 1.37 2.647 2.71 6.019 4.018 10.116-0.549 0.401-1.308 1.093-2.272 2.079-1.332 1.252-2.365 2.145-3.096 2.682l2.918 3.132c0.549-0.4 1.226-1.108 2.034-2.116 0.599-0.72 1.078-1.212 1.447-1.478 0.931 3.389 1.465 6.716 1.604 9.985l4.573-1.233c-0.783-4.342-1.787-8.31-3.008-11.908 2.687-2.665 5.741-5.596 9.16-8.792zM277.459 138.338l-5.226-0.815c-1.281 11.318-3.072 22.799-5.378 34.447-0.27-0.37-0.683-0.837-1.24-1.411-1.096-1.308-1.988-2.341-2.68-3.095l-3.92 3.282c6.041 5.969 11.507 12.017 16.393 18.134l3.92-3.282c-2.955-2.894-5.66-5.833-8.115-8.812 1.404-12.111 3.484-24.928 6.246-38.447zM276.26 175.627l-0.979 4.714c2.375 0.371 5.755 1.058 10.141 2.070 2.351 0.527 4.079 0.88 5.19 1.054-0.209 0.29-0.611 0.795-1.21 1.514-1.615 2.017-2.993 3.586-4.142 4.708l3.942 2.805c2.051-2.764 4.332-5.408 6.836-7.938 4.677 1.219 9.353 2.434 14.031 3.651l0.741-4.752c-11.462-2.441-22.98-5.048-34.55-7.828zM279.933 159.897l-0.741 4.752c10.659 1.337 21.168 3.142 31.521 5.408l0.704-4.514c-10.502-1.316-20.999-3.199-31.484-5.646zM280.773 168.545l-0.779 4.989c9.282 0.8 18.481 2.156 27.594 4.065l0.779-4.989c-8.152-0.786-17.351-2.142-27.594-4.065zM281.365 156.957l4.847-1.433c5.43 2.631 10.834 4.368 16.221 5.209 7.442 1.163 11.493-0.882 12.152-6.133 0.319-7.251-5.728-12.168-18.138-14.756-9.661-1.508-14.997 0.986-16.011 7.477-0.52 3.326-0.212 6.538 0.93 9.636zM302.627 156.382c-5.521-1.025-11.341-3.231-17.462-6.62 0.026-0.16 0.063-0.397 0.111-0.712-0.085-0.501-0.101-0.909-0.053-1.226 0.335-3.193 3.512-4.319 9.533-3.378 10.293 1.606 15.226 4.811 14.804 9.613-0.19 2.239-2.5 3.015-6.933 2.323zM323.215 178.822l-1.106 3.964c0.791 0.123 1.889 0.374 3.289 0.756 1.582 0.247 2.69 0.421 3.326 0.519 0.384 1.68 1.098 4.388 2.139 8.122 0.334 2 0.669 3.512 0.996 4.534l5.084-1.396c-1.065-3.574-2.009-6.884-2.829-9.933 3.907 0.932 7.183 1.769 9.829 2.508l0.905-4.239-0.474-0.074c0.053-7.62-0.645-15.108-2.089-22.471 0.475 0.074 1.332 0.286 2.577 0.645 0.791 0.123 1.344 0.209 1.663 0.26l0.741-4.752c-1.9-0.296-3.961-0.618-6.178-0.964-0.58-2.524-1.379-4.68-2.398-6.458l-4.974 0.683c0.909 1.44 1.693 3.185 2.347 5.233-4.899 0.209-7.777 3.569-8.633 10.091-0.543 3.481-0.393 8.213 0.462 14.186-1.378-0.541-2.938-0.945-4.68-1.216zM332.218 166.356c0.57-3.645 2.247-5.573 5.041-5.784 1.518 6.889 2.162 14.209 1.925 21.959-0.635-0.099-1.572-0.329-2.814-0.683-1.425-0.222-2.444-0.465-3.050-0.72-1.354-5.892-1.717-10.815-1.101-14.773zM346.962 170.118l-1.253 4.914c3.116 0.809 6.143 1.689 9.080 2.635-0.575 0.557-1.296 1.014-2.16 1.366l3.043 3.882 0.274-0.2c4.425 4.909 6.531 8.563 6.319 10.964-0.247 1.582-1.559 2.191-3.934 1.82-3.326-0.519-7.404-2.457-12.236-5.805l-2.604 4.216c4.855 3.192 9.409 5.199 13.661 6.026 5.566 0.705 8.841-1.053 9.827-5.279 0.594-3.801-1.801-8.717-7.188-14.75 0.341-0.11 0.616-0.312 0.824-0.601 4.202 1.142 8.286 2.51 12.257 4.103l1.054-5.19c-1.876-0.456-4.678-1.216-8.404-2.286 2.481 0.712 2.101 0.572-1.151-0.422 2.994-3.59 4.776-7.206 5.344-10.848 1.318-7.423-1.041-11.517-7.083-12.3-2.060-0.322-5.199-0.485-9.414-0.496l-0.431 4.313c2.741 0.101 5.3 0.341 7.676 0.712 3.851 0.274 5.283 2.529 4.3 6.755-0.704 3.457-2.697 6.88-5.982 10.26-2.011-0.64-5.262-1.637-9.755-2.984-0.925-0.306-1.612-0.577-2.063-0.808zM393.255 166.638l-4.958 2.147c3.103 7.135 6.859 16.318 11.272 27.555-4.436-0.692-8.396-1.312-11.877-1.855l-0.98 4.715c1.741 0.272 4.207 0.572 7.402 0.912 3.325 0.519 5.791 0.82 7.4 0.911 1.297 3.123 2.437 6.221 3.416 9.295l4.922-1.909c-0.245-0.524-0.61-1.312-1.092-2.361-0.863-1.757-1.455-3.147-1.783-4.171 6.967 1.087 14.332 2.238 22.093 3.449l0.505-4.788c-10.026-1.243-18.211-2.356-24.543-3.345-2.755-6.271-6.45-15.851-11.087-28.743-0.351-0.87-0.584-1.472-0.69-1.813zM435.080 166.841l-2.457-4.521c-1.573 0.728-3.857 1.832-6.844 3.313-3.173 1.61-5.546 2.784-7.119 3.512-3.33-3.604-8.722-7.526-16.17-11.772l-3.244 3.63c5.806 3.339 10.613 6.846 14.418 10.525-1.942 0.993-4.827 2.327-8.656 4.002-1.573 0.728-2.717 1.279-3.422 1.656l2.457 4.521c4.247-2.258 8.57-4.502 12.976-6.736 3.839 4.494 5.642 8.018 5.405 10.577-0.346 2.217-2.579 3.005-6.695 2.363-3.46-0.704-6.791-1.711-9.992-3.021l-1.491 4.877c4.918 1.743 9.279 2.91 13.081 3.503 5.882 0.755 9.301-1.388 10.251-6.429 0.594-3.801-1.26-8.555-5.562-14.254 4.221-2.101 8.573-4.016 13.063-5.748z" />
<glyph unicode="&#xe60d;" d="M362.983 39.125c6.518-6.591 6.518-17.219 0-23.81s-17.048-6.591-23.566 0l-190.425 192.298c-6.518 6.591-6.518 17.243 0 23.81l190.425 192.322c6.518 6.591 17.048 6.591 23.566 0s6.518-17.219 0-23.809l-173.644-180.407 173.644-180.404z" />
<glyph unicode="&#xe60e;" d="M255.999 473.6l-204.799-200.11h116.9v-118.998h175.798v118.998h116.901zM168.101 40.145h175.798v-21.794h-175.798v21.794zM168.101 84.787h175.798v-26.736h-175.798v26.736zM168.101 0.447h175.798v-13.247h-175.798v13.247zM168.101 136.588h175.798v-33.897h-175.798v33.897z" />
<glyph unicode="&#xe60f;" d="M453.591 180.876c0 54.117-54.14 98.232-114.962 98.232-64.408 0-115.123-44.114-115.123-98.232 0-54.197 50.716-98.204 115.123-98.204 13.471 0 27.069 3.384 40.61 6.778l37.132-20.334-10.185 33.837c27.161 20.378 47.404 47.409 47.404 77.924zM301.311 197.817c-6.741 0-13.531 6.697-13.531 13.546 0 6.733 6.788 13.53 13.531 13.53 10.234 0 16.931-6.797 16.931-13.53 0-6.849-6.697-13.546-16.932-13.546zM375.762 197.817c-6.7 0-13.454 6.697-13.454 13.546 0 6.733 6.755 13.53 13.454 13.53 10.135 0 16.931-6.797 16.931-13.53 0-6.849-6.796-13.546-16.932-13.546zM330.070 286.377c4.383 0 8.723-0.321 13.029-0.793-11.708 54.526-70.011 95.042-136.565 95.042-74.402 0-135.338-50.714-135.338-115.119 0-37.158 20.263-67.691 54.148-91.374l-13.529-40.713 47.308 23.719c16.937-3.341 30.519-6.779 47.411-6.779 4.248 0 8.466 0.206 12.643 0.536-2.651 9.050-4.178 18.526-4.178 28.36 0 59.132 50.758 107.122 115.071 107.122zM162.567 289.236c-10.149 0-20.382 6.805-20.382 16.95 0 10.189 10.233 16.886 20.382 16.886 10.148 0 16.891-6.697 16.891-16.886 0-10.144-6.743-16.95-16.891-16.95zM236.974 306.187c0 10.189 10.171 16.886 20.317 16.886 10.195 0 16.933-6.697 16.933-16.886 0-10.144-6.737-16.95-16.933-16.95-10.147 0-20.317 6.805-20.316 16.95z" />
<glyph unicode="&#xe610;" d="M203.199 321.468c-50.523-17.289-93.9-77.871-93.9-77.871-30.165-40.255-26.173-71.368-26.173-71.368 7.537-68.684 80.516-87.537 137.278-92 59.718-4.685 140.317 20.584 164.759 72.497 24.437 52-19.973 72.58-34.104 75.397-14.083 2.731-7.238 10.311-7.238 10.311s13.777 22.709-2.728 39.222c-20.455 20.448-70.161-2.603-70.161-2.603-18.984-5.89-13.953 2.69-11.27 17.291 0 17.204-5.891 46.319-56.464 29.121zM332.166 178.98c0-39.557-48.019-76.69-107.342-79.383-59.283-2.771-107.21 26.956-107.21 66.519 0 39.605 47.927 71.367 107.21 74.1 59.324 2.732 107.343-21.71 107.342-61.236zM212.998 214.13c-59.628-6.979-52.736-62.831-52.736-62.831s-0.612-17.685 15.987-26.692c34.888-18.897 70.809-7.455 88.965 15.978 18.156 23.449 7.5 80.474-52.216 73.545zM197.959 135.74c-11.132-1.304-20.104 5.111-20.104 14.428 0 9.272 7.969 18.983 19.108 20.147 12.79 1.219 21.11-6.151 21.11-15.469 0-9.272-9.024-17.846-20.114-19.106zM225.219 177.991c4.419 3.29 9.013 2.342 11.005-0.958 1.997-3.376 0.568-8.445-3.115-11.351-3.77-2.818-8.415-2.428-10.405 0.954-2.077 3.293-1.297 8.579 2.516 11.354zM411.248 244.599c0-7.845 6.331-12.774 14.164-12.774 6.551 0 12.055 0.893 13.659 11.972h0.089c23.269 77.556-28.471 113.999-66.171 122.796-21.064 4.934-42.731 0.682-48.802-0.481-0.469-0.045-0.908-0.487-1.34-0.575-0.212-0.043-0.342-0.257-0.342-0.257-5.981-1.695-10.358-7.235-10.358-13.78 0-7.802 6.324-14.218 14.212-14.218 0 0 7.671 1.029 12.87 3.063 5.156 2.077 48.789 1.548 70.463-34.85 11.827-26.563 5.199-44.341 4.373-47.197 0 0-2.814-6.904-2.814-13.698zM380.092 252.308c4.805 0 8.89 3.554 9.577 8.191 0.087 0.346 0.131 0.649 0.131 1.038 7.282 65.476-53.649 54.207-53.649 54.207-5.409 0-9.749-4.378-9.749-9.836 0-5.372 4.339-9.748 9.749-9.748 43.765 9.662 34.108-34.105 34.107-34.105-0.001-5.413 4.41-9.746 9.835-9.746z" />
<glyph unicode="&#xe611;" d="M229.965 392.564c-78.788-12.499-139.020-80.728-139.020-163.031 0-36.902 12.112-70.975 32.571-98.464 70.002 45.353 106.45 109.284 106.45 191.818v69.677zM353.37 96.195c-38.863 32.88-68.856 74.32-88.903 124.478-22.644-52.276-56.099-93.784-101.187-127.721 26.436-17.988 58.365-28.506 92.752-28.506 36.402 0 70.046 11.791 97.338 31.749zM395.248 140.772c16.376 25.633 25.87 56.087 25.87 88.761 0 78.275-54.476 143.822-127.582 160.806-2.499-14.565-2.75-32.817-2.75-53.816v-11.361c7.679-84.414 42.502-145.037 104.462-184.389z" />
<glyph unicode="&#xe612;" d="M420.476 284.219c-26.945 3.914-107.752 15.654-107.752 15.654s-36.146 73.234-48.194 97.648c-4.010 8.141-14.222 8.141-18.238 0-12.042-24.414-48.187-97.645-48.187-97.645s-80.813-11.734-107.75-15.656c-8.989-1.303-12.137-11.011-5.637-17.345 19.492-18.995 77.968-76.004 77.968-76.004s-13.806-80.481-18.411-107.315c-1.525-8.942 6.726-14.947 14.764-10.724 24.090 12.673 96.374 50.675 96.374 50.675s72.278-38.009 96.38-50.675c8.038-4.219 16.288 1.776 14.757 10.729-3.036 17.68-10.070 58.673-14.507 84.564 4.557 1.518 16.183 5.688 19.599 9.707 0 0-20.425-4.887-20.431-4.874-60.478-10.568-128.585-11.536-178.411-2.593 43.268 31.376 95.339 65.070 115.117 83.38-40.375 5.13-82.091 7.052-134.109 9.92 32.847 15.054 148.481 14.026 198.336 3.092-47.403-36.84-73.175-52.627-114.707-79.534 32.911-7.171 71.332-6.078 112.408-8.407l-0.142 2.925c-0.969 5.668-1.562 9.125-1.562 9.125s58.484 57 77.983 76.005c6.486 6.334 3.338 16.048-5.646 17.348z" />
<glyph unicode="&#xe613;" d="M403.409 175.426c-6.685 38.775-34.764 64.179-34.764 64.179 4.010 35.204-10.697 41.448-10.697 41.448-3.095 108.923-96.921 107.019-98.894 106.965-1.971 0.052-95.812 1.958-98.895-106.965 0 0-14.707-6.244-10.696-41.448 0 0-28.078-25.405-34.763-64.179 0 0-3.57-65.516 32.089-8.022 0 0 8.023-21.834 22.73-41.449 0 0-26.299-8.918-24.067-32.089 0 0-0.896-25.846 56.157-24.066 0 0 40.112 3.114 52.144 20.055h10.603c12.033-16.942 52.144-20.055 52.144-20.055 57.039-1.78 56.156 24.066 56.156 24.066 2.22 23.17-24.066 32.089-24.066 32.089 14.707 19.615 22.731 41.449 22.731 41.449 35.644-57.494 32.087 8.022 32.087 8.022z" />
<glyph unicode="&#xe614;" d="M148.984 49.994c-6.518-6.591-6.518-17.219 0-23.81s17.048-6.591 23.566 0l190.425 192.298c6.518 6.591 6.518 17.243 0 23.81l-190.425 192.322c-6.518 6.591-17.048 6.591-23.566 0s-6.518-17.219 0-23.81l173.645-180.406-173.644-180.406z" />
<glyph unicode="&#xe615;" d="M201.292 192.177v-120.472c16.981-5.755 35.177-8.88 54.102-8.88 22.033 0 43.073 4.239 62.36 11.935l-105.954 105.953c-3.932 3.397-7.459 7.243-10.507 11.463zM410.244 165.046h-146.291c-2.806-0.358-5.658-0.565-8.56-0.565-3.861 0-7.641 0.348-11.322 0.976l85.451-85.462c36.064 17.718 64.861 47.955 80.722 85.052zM405.406 307.669c-17.86 34.971-47.587 62.864-83.87 78.384v-146.233c0.364-2.827 0.574-5.704 0.574-8.632 0-2.436-0.139-4.839-0.393-7.209l83.69 83.69zM294.377 177.067h120.471c5.762 16.986 8.889 35.188 8.889 54.122 0 22.987-4.611 44.894-12.95 64.855l-96.819-96.814c-4.801-8.777-11.523-16.344-19.591-22.163zM100.509 297.329h146.248c2.827 0.366 5.707 0.575 8.637 0.575 3.418 0 6.775-0.259 10.055-0.755l-84.892 84.887c-35.747-17.764-64.284-47.849-80.047-84.707zM104.698 156.018c17.787-35.582 47.8-63.986 84.543-79.696v146.378c-0.353 2.782-0.555 5.611-0.555 8.489 0 3.222 0.242 6.387 0.683 9.488l-84.671-84.66zM192.285 387.315l101.782-101.779c5.956-4.247 11.183-9.442 15.461-15.373v120.494c-16.99 5.765-35.195 8.894-54.133 8.894-22.319 0-43.618-4.351-63.108-12.236zM87.013 231.19c0-22.452 4.406-43.872 12.382-63.457l100.559 100.567c4.43 6.606 10.012 12.365 16.453 17.013h-120.504c-5.762-16.986-8.889-35.189-8.889-54.123z" />
<glyph unicode="&#xe616;" d="M417.792 323.097c-1.942-2.449-1.538-6.053 0.903-7.993 2.442-1.947 6.101-1.495 7.993 0.938 2.978 3.777 5.434 7.941 7.642 12.323 15.197 31.736 1.598 70.015-30.226 85.099-31.85 15.143-70.068 1.555-85.165-30.289-15.155-31.843-1.557-70.015 30.283-85.157 9.111-4.329 19.252-6.429 29.251-6.212 3.197 0.167 5.696 2.769 5.551 5.936-0.058 3.167-2.733 5.602-5.901 5.543-8.255-0.334-16.477 1.445-24.065 4.999-26.241 12.482-37.403 43.825-24.805 69.951 12.368 26.294 43.726 37.387 69.894 24.905 26.241-12.308 37.328-43.757 24.865-69.894-1.66-3.601-3.781-7.104-6.223-10.148zM143.644 163.6c8.197-1.83 16.797-2.776 25.281-2.776 62.195 0 112.745 50.538 112.747 112.563 0 62.132-50.55 112.663-112.745 112.663-62.131 0-112.67-50.531-112.67-112.663 0-17.749 4.214-35.616 12.38-51.366 2.556-4.941 8.486-6.887 13.427-4.271 5.055 2.491 6.975 8.536 4.386 13.418-6.769 13.151-10.172 27.406-10.172 42.22 0 51.039 41.619 92.582 92.648 92.582 51.148 0 92.706-41.543 92.706-92.582 0-51.033-41.556-92.584-92.706-92.584-7.034 0-14.079 0.772-20.864 2.325-5.377 1.279-10.637-2.106-11.976-7.548-1.102-5.32 2.123-10.704 7.558-11.981zM467.055 249.31c2.833-0.996 5.842 0.276 7.147 2.883 0 0.169 0.116 0.278 0.175 0.56 1.002 2.942-0.437 6.095-3.429 7.263-33.51 12.367-58.968 32.724-75.502 60.522-3.953 6.546-6.83 12.705-9.050 18.256 3.613 1.999 6.722 5.21 8.657 9.205 4.926 10.535 0.496 23.134-10.041 28.176-10.605 5.057-23.193 0.559-28.192-9.984-5.055-10.593-0.61-23.133 10.114-28.232 2.649-1.161 5.435-1.939 8.373-1.998 2.321-6.104 5.55-13.26 9.966-20.808 12.324-20.849 36.56-49.148 81.782-65.844zM149.25 244.929c6.088-4.214 13.399-6.714 21.347-6.714 20.694 0 37.272 16.639 37.272 37.337 0 20.583-16.578 37.221-37.272 37.221-20.592 0-37.329-16.638-37.329-37.221 0-5.325 1.102-10.373 3.108-14.923-7.992-8.434-16.825-19.026-25.427-31.893-23.888-35.398-50.624-98.323-43.041-182.994 0.494-5.209 4.826-12.111 9.936-12.111h0.989c5.493 0 9.606 8.399 9.156 13.892-5.811 62.808 7.441 120.329 39.117 167.712 7.438 11.203 15.083 22.145 22.143 29.694z" />
<glyph unicode="&#xe617;" d="M432 416l-240-240-112 112-80-80 192-192 320 320z" />
<glyph unicode="&#xe618;" d="M389.453 290.841c-7.040 0-13.978-0.615-20.711-1.741-16.793 54.912-68.813 94.925-130.458 94.925-75.213 0-136.167-59.597-136.167-133.12 0-6.553 0.512-13.005 1.459-19.328-3.609 0.41-7.245 0.691-10.983 0.691-51.123 0-92.595-40.551-92.595-90.522 0-49.997 41.472-90.522 92.595-90.522h127.565v97.28h-53.76l89.6 117.76 89.6-117.76h-53.76v-97.28h97.587c67.712 0 122.547 53.658 122.547 119.808 0.026 66.176-54.835 119.808-122.522 119.808z" />
<glyph unicode="&#xe619;" d="M256-32c141.385 0 256 114.615 256 256s-114.615 256-256 256-256-114.615-256-256 114.615-256 256-256zM256 432c114.875 0 208-93.125 208-208s-93.125-208-208-208-208 93.125-208 208 93.125 208 208 208zM128 320c0-17.673 14.327-32 32-32s32 14.327 32 32-14.327 32-32 32-32-14.327-32-32zM320 320c0-17.673 14.327-32 32-32s32 14.327 32 32-14.327 32-32 32-32-14.327-32-32zM192 128h128v-32h-128v32z" />
<glyph unicode="&#xe61a;" d="M256 432c-55.559 0-107.792-21.636-147.078-60.922s-60.922-91.519-60.922-147.078c0-55.559 21.636-107.792 60.922-147.078s91.519-60.922 147.078-60.922c55.559 0 107.792 21.636 147.078 60.922s60.922 91.519 60.922 147.078c0 55.559-21.636 107.792-60.922 147.078s-91.519 60.922-147.078 60.922zM256 480v0c141.385 0 256-114.615 256-256s-114.615-256-256-256c-141.385 0-256 114.615-256 256s114.615 256 256 256zM224 128h64v-64h-64zM224 384h64v-192h-64z" />
<glyph unicode="&#xe61b;" d="M320.154 226.829c0 34.639-28.082 62.728-62.728 62.728-16.090 0-30.655-6.169-41.743-16.139l-121.603 121.603c-31.878-40.239-50.953-91.079-50.953-146.408 0-130.386 105.702-236.079 236.083-236.079 55.324 0 106.189 19.055 146.417 50.935l-121.613 121.613c9.971 11.092 16.139 25.656 16.139 41.746zM350.887 74.611c-22.096-9.113-46.291-14.168-71.676-14.168-103.923 0-188.177 84.243-188.177 188.171 0 25.387 5.056 49.582 14.168 71.678l245.685-245.681zM379.763 189.998c10.068 17.231 15.941 37.214 15.941 58.615 0 64.335-52.156 116.494-116.493 116.494-20.452 0-39.648-5.308-56.355-14.565l17.671-31.96c11.467 6.358 24.643 9.998 38.684 9.998 44.156 0 79.959-35.804 79.959-79.967 0-14.685-4.028-28.399-10.942-40.236l31.535-18.38zM279.211 436.791c-33.032 0-64.065-8.541-91.052-23.493l18.934-34.243c21.38 11.846 45.944 18.635 72.118 18.635 82.327 0 149.077-66.745 149.077-149.078 0-27.379-7.51-52.956-20.394-75.011l33.875-19.749c16.26 27.833 25.62 60.19 25.62 94.76 0 103.925-84.25 188.179-188.177 188.179z" />
<glyph unicode="&#xe61c;" d="M424.75 238.063h-0.689c-6.919-74.18-66.923-154.688-139.936-154.688v-56.25h84.375c7.776 0 14.063-6.286 14.063-14.063s-6.286-14.063-14.063-14.063h-225c-7.776 0-14.063 6.286-14.063 14.063s6.286 14.063 14.063 14.063h84.375v56.25c-73.012 0-133.003 80.508-139.936 154.688h-0.689v84.375c0 15.525 12.6 28.125 28.125 28.125s28.125-12.6 28.125-28.125v-70.313c0-62.128 50.372-112.5 112.5-112.5s112.5 50.372 112.5 112.5v70.313c0 15.525 12.6 28.125 28.125 28.125s28.125-12.6 28.125-28.125v-84.375zM256 195.875c-38.84 0-56.25 31.472-56.25 70.313v112.5c0 38.827 17.41 70.313 56.25 70.313s56.25-31.486 56.25-70.313v-112.5c0-38.84-17.409-70.313-56.25-70.313zM277.094 252.125c3.881 0 7.031 3.15 7.031 7.031 0 3.867-3.15 7.031-7.031 7.031s-7.031-3.164-7.031-7.031c0-3.881 3.15-7.031 7.031-7.031zM234.906 336.5c-3.881 0-7.031-3.164-7.031-7.031 0-3.881 3.15-7.031 7.031-7.031s7.031 3.15 7.031 7.031c0 3.867-3.15 7.031-7.031 7.031zM241.938 357.594c0 3.881-3.15 7.031-7.031 7.031s-7.031-3.15-7.031-7.031c0-3.881 3.15-7.031 7.031-7.031s7.031 3.15 7.031 7.031zM248.969 294.313c-3.881 0-7.031-3.164-7.031-7.031 0-3.881 3.15-7.031 7.031-7.031s7.031 3.15 7.031 7.031c0 3.867-3.15 7.031-7.031 7.031zM263.031 294.313c3.881 0 7.031 3.15 7.031 7.031 0 3.867-3.15 7.031-7.031 7.031s-7.031-3.164-7.031-7.031c0-3.881 3.15-7.031 7.031-7.031zM248.969 308.375c3.881 0 7.031 3.15 7.031 7.031 0 3.867-3.15 7.031-7.031 7.031s-7.031-3.164-7.031-7.031c0-3.881 3.15-7.031 7.031-7.031zM234.906 308.375c-3.881 0-7.031-3.164-7.031-7.031 0-3.881 3.15-7.031 7.031-7.031s7.031 3.15 7.031 7.031c0 3.867-3.15 7.031-7.031 7.031zM248.969 336.5c3.881 0 7.031 3.15 7.031 7.031s-3.15 7.031-7.031 7.031-7.031-3.15-7.031-7.031c0-3.881 3.15-7.031 7.031-7.031zM263.031 350.563c3.881 0 7.031 3.15 7.031 7.031s-3.15 7.031-7.031 7.031-7.031-3.15-7.031-7.031c0-3.881 3.15-7.031 7.031-7.031zM263.031 336.5c-3.881 0-7.031-3.164-7.031-7.031 0-3.881 3.15-7.031 7.031-7.031s7.031 3.15 7.031 7.031c0 3.867-3.15 7.031-7.031 7.031zM277.094 336.5c3.881 0 7.031 3.15 7.031 7.031s-3.15 7.031-7.031 7.031-7.031-3.15-7.031-7.031c0-3.881 3.15-7.031 7.031-7.031zM277.094 322.438c-3.881 0-7.031-3.164-7.031-7.031 0-3.881 3.15-7.031 7.031-7.031s7.031 3.15 7.031 7.031c0 3.867-3.15 7.031-7.031 7.031zM277.094 294.313c-3.881 0-7.031-3.164-7.031-7.031 0-3.881 3.15-7.031 7.031-7.031s7.031 3.15 7.031 7.031c0 3.867-3.15 7.031-7.031 7.031zM263.031 266.188c3.881 0 7.031 3.15 7.031 7.031 0 3.867-3.15 7.031-7.031 7.031s-7.031-3.164-7.031-7.031c0-3.881 3.15-7.031 7.031-7.031zM248.969 252.125c3.881 0 7.031 3.15 7.031 7.031 0 3.867-3.15 7.031-7.031 7.031s-7.031-3.164-7.031-7.031c0-3.881 3.15-7.031 7.031-7.031zM234.906 266.188c3.881 0 7.031 3.15 7.031 7.031 0 3.867-3.15 7.031-7.031 7.031s-7.031-3.164-7.031-7.031c0-3.881 3.15-7.031 7.031-7.031zM234.906 392.75c-3.881 0-7.031-3.15-7.031-7.031s3.15-7.031 7.031-7.031 7.031 3.15 7.031 7.031c0 3.881-3.15 7.031-7.031 7.031zM248.969 378.688c-3.881 0-7.031-3.15-7.031-7.031s3.15-7.031 7.031-7.031 7.031 3.15 7.031 7.031c0 3.881-3.15 7.031-7.031 7.031zM263.031 392.75c-3.881 0-7.031-3.15-7.031-7.031s3.15-7.031 7.031-7.031 7.031 3.15 7.031 7.031c0 3.881-3.15 7.031-7.031 7.031zM277.094 378.688c-3.881 0-7.031-3.15-7.031-7.031s3.15-7.031 7.031-7.031 7.031 3.15 7.031 7.031c0 3.881-3.15 7.031-7.031 7.031z" />
<glyph unicode="&#xe61d;" d="M164.594 181.813c0-50.483 40.923-91.406 91.406-91.406s91.406 40.923 91.406 91.406-40.923 91.406-91.406 91.406-91.406-40.923-91.406-91.406zM452.875 336.5h-98.438c-7.031 28.125-14.063 56.25-42.188 56.25h-112.5c-28.125 0-35.156-28.125-42.188-56.25h-98.438c-15.469 0-28.125-12.656-28.125-28.125v-253.125c0-15.469 12.657-28.125 28.125-28.125h393.75c15.469 0 28.125 12.656 28.125 28.125v253.125c0 15.469-12.656 28.125-28.125 28.125zM256 57.008c-68.928 0-124.805 55.875-124.805 124.805s55.876 124.805 124.805 124.805c68.929 0 124.805-55.876 124.805-124.805s-55.875-124.805-124.805-124.805zM452.875 252.125h-56.25v28.125h56.25v-28.125z" />
<glyph unicode="&#xe61e;" d="M192 336c0 44.183 35.817 80 80 80s80-35.817 80-80c0-44.183-35.817-80-80-80s-80 35.817-80 80zM0 336c0 44.183 35.817 80 80 80s80-35.817 80-80c0-44.183-35.817-80-80-80s-80 35.817-80 80zM384 176v48c0 17.6-14.4 32-32 32h-320c-17.6 0-32-14.4-32-32v-160c0-17.6 14.4-32 32-32h320c17.6 0 32 14.4 32 32v48l128-80v224l-128-80zM320 96h-256v96h256v-96z" />
<glyph unicode="&#xe61f;" d="M176.899 408.57h-105.469v-105.469h105.469v105.469zM203.266 434.938v0-158.203h-158.203v158.203h158.203zM97.797 382.203h52.734v-52.734h-52.734zM440.57 408.57h-105.469v-105.469h105.469v105.469zM466.938 434.938v0-158.203h-158.203v158.203h158.203zM361.469 382.203h52.734v-52.734h-52.735zM176.899 144.899h-105.469v-105.469h105.469v105.469zM203.266 171.265v0-158.203h-158.203v158.203h158.203zM97.797 118.531h52.734v-52.734h-52.734zM229.633 434.938h26.367v-26.367h-26.367zM256 408.57h26.367v-26.367h-26.367zM229.633 382.203h26.367v-26.367h-26.367zM256 355.836h26.367v-26.367h-26.367zM229.633 329.469h26.367v-26.367h-26.367zM256 303.101h26.367v-26.367h-26.367zM229.633 276.735h26.367v-26.367h-26.367zM229.633 224h26.367v-26.367h-26.367zM256 197.633h26.367v-26.367h-26.367zM229.633 171.265h26.367v-26.367h-26.367zM256 144.899h26.367v-26.367h-26.367zM229.633 118.531h26.367v-26.367h-26.367zM256 92.164h26.367v-26.367h-26.367zM229.633 65.797h26.367v-26.367h-26.367zM256 39.43h26.367v-26.367h-26.367zM440.57 224h26.367v-26.367h-26.367zM71.43 224h26.367v-26.367h-26.367zM97.797 250.367h26.367v-26.367h-26.367zM45.063 250.367h26.367v-26.367h-26.367zM150.531 250.367h26.367v-26.367h-26.367zM176.899 224h26.367v-26.367h-26.367zM203.266 250.367h26.367v-26.367h-26.367zM282.367 224h26.367v-26.367h-26.367zM308.735 250.367h26.367v-26.367h-26.367zM335.101 224h26.367v-26.367h-26.367zM361.469 250.367h26.367v-26.367h-26.367zM387.836 224h26.367v-26.367h-26.367zM414.203 250.367h26.367v-26.367h-26.367zM440.57 171.265h26.367v-26.367h-26.367zM282.367 171.265h26.367v-26.367h-26.367zM308.735 197.633h26.367v-26.367h-26.367zM335.101 171.265h26.367v-26.367h-26.367zM387.836 171.265h26.367v-26.367h-26.367zM414.203 197.633h26.367v-26.367h-26.367zM440.57 118.531h26.367v-26.367h-26.367zM282.367 118.531h26.367v-26.367h-26.367zM308.735 144.899h26.367v-26.367h-26.367zM361.469 144.899h26.367v-26.367h-26.367zM387.836 118.531h26.367v-26.367h-26.367zM414.203 144.899h26.367v-26.367h-26.367zM440.57 65.797h26.367v-26.367h-26.367zM308.735 92.164h26.367v-26.367h-26.367zM335.101 65.797h26.367v-26.367h-26.367zM361.469 92.164h26.367v-26.367h-26.367zM387.836 65.797h26.367v-26.367h-26.367zM308.735 39.43h26.367v-26.367h-26.367zM361.469 39.43h26.367v-26.367h-26.367zM414.203 39.43h26.367v-26.367h-26.367z" />
<glyph unicode="&#xe620;" d="M256 480c-141.385 0-256-114.615-256-256s114.615-256 256-256 256 114.615 256 256-114.615 256-256 256zM256 16c-114.875 0-208 93.125-208 208s93.125 208 208 208 208-93.125 208-208-93.125-208-208-208zM406.628 246.627l-128.001 128c-12.496 12.497-32.757 12.497-45.254 0s-12.497-32.758 0-45.255l73.372-73.372h-178.745c-17.673 0-32-14.327-32-32s14.327-32 32-32h178.745l-73.373-73.372c-12.497-12.497-12.497-32.759 0-45.256 6.249-6.248 14.439-9.372 22.628-9.372s16.379 3.124 22.627 9.372l128.001 128c12.496 12.497 12.496 32.759 0 45.255z" />
<glyph unicode="&#xe621;" d="M500.73 209.993l-244.783 244.785-244.783-244.785-0.921-0.558v-0.361l74.731-30.878v-184.118h137.175v158.672h67.596v-158.672h137.175v184.118l74.731 30.878v0.361l-0.921 0.558zM391.889 201.681v-172.584h-67.118v158.678h-137.649v-158.678h-67.118v172.583l-46.477 19.651 182.418 182.418 182.418-182.418-46.476-19.651z" />
<glyph unicode="&#xe622;" d="M160 160v96h96l-128 128-128-128h96v-160h192l-64 64zM416 192v160h-192l64-64h64v-96h-96l128-128 128 128z" />
<glyph unicode="&#xe623;" d="M70.606 409.394v-370.788h370.788v370.788h-370.788zM418.221 61.779h-324.44v324.44h324.44v-324.44zM348.697 328.284l-115.871-115.871-69.523 69.522-46.349-46.349 115.871-115.871 162.22 162.221-46.349 46.348z" />
<glyph unicode="&#xe624;" d="M463.091 96.012c-0.002 0.002-0.003 0.003-0.005 0.003l-127.981 127.984 127.981 127.983c0.002 0.002 0.003 0.003 0.005 0.004 1.377 1.378 2.373 2.989 3.012 4.703 1.75 4.687 0.752 10.168-3.017 13.938l-60.457 60.458c-3.769 3.768-9.25 4.765-13.937 3.016-1.714-0.638-3.325-1.635-4.704-3.012 0-0.002-0.002-0.003-0.003-0.003l-127.983-127.984-127.983 127.983c-0.002 0.002-0.003 0.003-0.004 0.003-1.379 1.377-2.989 2.374-4.703 3.012-4.689 1.75-10.168 0.752-13.938-3.016l-60.459-60.458c-3.769-3.769-4.766-9.25-3.017-13.937 0.639-1.714 1.636-3.326 3.013-4.703 0.002-0.001 0.003-0.003 0.004-0.004l127.983-127.983-127.984-127.984c-0.001-0.002-0.003-0.003-0.004-0.005-1.377-1.378-2.373-2.988-3.013-4.702-1.751-4.687-0.752-10.168 3.017-13.938l60.458-60.457c3.769-3.769 9.25-4.767 13.938-3.017 1.714 0.639 3.325 1.635 4.703 3.012 0.001 0.002 0.003 0.003 0.004 0.003l127.984 127.984 127.983-127.983c0.002-0.001 0.003-0.003 0.005-0.005 1.38-1.377 2.989-2.373 4.702-3.013 4.688-1.75 10.169-0.752 13.937 3.016l60.457 60.458c3.769 3.769 4.767 9.251 3.017 13.938-0.639 1.714-1.635 3.323-3.013 4.702z" />
<glyph unicode="&#xe625;" d="M478.848 304.458c-3.288 0.936-6.298 2.202-9.841 2.725-13.074 1.937-21.046 8.587-31.558 12.875-4.81 1.961-10.471 3.293-14.645 5.27-5.337 2.533-11.416 4.067-17.212 5.846-5.409 1.659-12.067 2.201-18.548 2.387-5.988 0.169-13.636-5.683-11.849-11.146 2-6.134 5.331-11.844 8.226-17.683 3.4-6.863 7.54-13.466 10.162-20.587 1.096-2.975 0.993-5.795-2.703-9.613-1.043-1.079-4.135-3.926-5.928-3.876-11.641-1.382-22.258-5.574-32.997-4.439-4.421 0.466-7.731-1.882-11.884-0.844-1.716 0.428-4.335-1.148-6.516-1.306-2.507-8.203-2.888-6.911 7.212-8.573 13.091 1.675 21.731 2.316 33.678 5.97 15.769-0.143 29.363 11.608 26.776 21.999-2.296 9.19-8.25 16.738-14.332 24.327-4.293 5.357-7.954 11.166-2.938 20.157 7.036-1.139 14.45-1.638 20.652-3.477 18.286-5.423 34.367-12.916 50.228-20.671 5.577-2.726 13.793-3.891 21.541-3.944 8.295-0.059 14.995 5.632 14.664 14.213-0.5 12.709-7.675 23.034-14.806 33.292-5.57 8.009-12.123 15.57-18.091 23.401-2.713 3.556-6.42 6.459-10.156 9.423-3.154 2.506-4.84 5.934-7.392 8.84-1.352 1.536-3.173 2.827-4.78 4.228 0.572 0.495 1.149 0.989 1.721 1.484 11.186-3.298 22.366-6.596 33.292-9.813 5.286 3.956 3.922 5.646 0.204 6.456-5.942 1.287-12.325 2.039-18.015 3.599-5.952 1.634-11.473 3.796-16.864 6.023-3.961 1.637-7.255 3.891-11.173 5.57-1.161 0.494-4.151 0.433-5.054-0.205-1.408-0.989-2.684-2.972-2.401-4.054 3.75-14.415 5.327-29.279 2.959-45.003-0.613-4.034-1.673-8.168-1.485-12.038 0.11-2.221 2.327-4.005 3.591-5.982 1.601 2.277 4.332 4.7 4.608 6.812 1.466 11.154 2.301 22.228 3.389 33.339 0.166 1.658 0.512 3.344 0.774 5.017 0.685 0.354 1.373 0.71 2.058 1.065 2.34-2.1 4.913-4.076 6.978-6.325 8.104-8.837 16.723-17.433 23.877-26.735 9.019-11.726 18.938-23.233 19.969-38.135 0.188-2.693-1.637-5.824-2.531-8.755-0.954-0.371-1.911-0.743-2.863-1.115zM27.774 203.048l-4.852 3.805c4.527 4.761 8.712 9.774 12.557 15.041-1.257 2.845-2.99 5.512-5.206 8.009-0.337-0.462-0.823-1.244-1.456-2.356-0.501-0.688-1.559-2.374-3.165-5.057l-5.058 3.163c2.005 2.748 4.010 5.494 6.014 8.241-2.153 2.096-4.361 3.881-6.616 5.355l2.822 5.309c2.715-1.81 5.134-3.663 7.256-5.56 2.005 2.746 3.964 5.79 5.874 9.13l5.057-3.166c-0.639-1.116-1.81-2.715-3.508-4.805-1.473-2.26-2.628-3.961-3.462-5.102 5.957-6.98 9.6-14.728 10.928-23.237 2.575-15.217-0.603-23.412-9.541-24.61-1.188-0.185-2.295-0.252-3.313-0.212l-0.677 6.283c0.82-0.077 2.023 0.012 3.61 0.259 4.322 0.874 5.795 6.38 4.42 16.507-0.278 1.783-0.786 3.727-1.522 5.848-3.602-4.213-6.992-8.498-10.163-12.843zM52.85 219.738l-0.287 5.734c3.519-0.47 6.566-0.496 9.141-0.094 0.789 0.123 1.111 0.677 0.956 1.671-0.154 0.988-0.73 2.724-1.725 5.206 0.871-1.688 0.724-1.408-0.436 0.845-4.556-0.712-10.029-1.367-16.426-1.956l-0.287 5.736c4.445 0.086 9.063 0.398 13.846 0.945 5.352 4.685 7.94 8.236 7.768 10.643-0.123 0.788-1.178 1.033-3.156 0.725-4.127-0.848-8.974-2.923-14.542-6.225l-2.959 5.317c6.162 3.395 11.813 5.495 16.964 6.299 5.77 0.696 9.049-0.821 9.836-4.549 0.463-2.97-1.372-6.805-5.505-11.505 7.189 0.713 12.267 1.306 15.237 1.77l0.24-5.438c-4.055-0.024-8.965-0.387-14.736-1.083 0.965-2.282 1.5-4.433 1.614-6.44 1.106-4.494-0.848-6.929-5.856-7.301-2.773-0.436-5.999-0.538-9.687-0.3zM48.876 188.699l-1.336 4.658 5.002 1.086c-2.015 9.010-3.87 16.325-5.556 21.947l5.252 1.428 0.806-3.219c6.224 2.995 12.403 4.978 18.541 5.936 7.26 1.537 11.076-0.809 11.441-7.035 0.659-2.938 0.739-6.68 0.231-11.219 0.564 0.287 1.439 0.529 2.626 0.714 1.158 0.38 2.032 0.622 2.627 0.714l1.335-4.658c-1.951-0.505-4.874-1.264-8.769-2.281-13.507-3.121-24.242-5.81-32.202-8.070zM65.757 201.373l-4.956-1.382c-0.508 1.945-1.397 5.053-2.672 9.315 0.827-2.713 0.653-2.231-0.529 1.44-0.398-0.063-0.961-0.355-1.689-0.873-0.762-0.322-1.325-0.616-1.689-0.872 1.075-4.295 2.267-8.673 3.571-13.13 2.94 0.659 7.23 1.736 12.881 3.227 2.939 0.659 5.084 1.197 6.441 1.613 0.694 3.351 0.746 6.909 0.159 10.672-0.132 3.425-2.047 4.647-5.744 3.666l-0.594-0.093c0.981-3.701 2.164-7.37 3.544-11.006l-4.956-1.382c-1.212 3.865-2.409 7.632-3.59 11.303-0.399-0.062-0.977-0.257-1.736-0.575-0.794-0.125-1.372-0.319-1.735-0.575 0.719-3.336 1.819-7.119 3.292-11.348zM113.653 241.399l-5.002-1.085c0.663 3.55 0.566 7.389-0.278 11.517-0.113 2.006-1.144 2.76-3.090 2.255-2.181-0.34-4.294-1.079-6.347-2.207l-1.883 4.27c2.815 1.452 5.605 2.395 8.379 2.828 4.29 1.074 6.741-0.977 7.349-6.153 0.557-3.565 0.847-7.373 0.871-11.424zM106.388 250.911l-0.242-4.297c-2.5 0.419-5.040 0.431-7.609 0.029l-0.306 3.906c0.594 0.094 1.501 0.13 2.719 0.121 2.439-0.027 4.25 0.056 5.439 0.241zM101.895 236.825l-3.48 2.804c1.065 0.974 2.66 2.44 4.789 4.397 0.896 0.749 1.612 1.363 2.144 1.856l2.885-2.897c-0.7-0.717-1.764-1.696-3.192-2.931-1.401-1.436-2.451-2.511-3.147-3.228zM103.32 212.104l-4.871 1.977c3.988 6.905 7.916 15.534 11.778 25.869l4.873-1.977c-0.136-0.43-0.439-1.085-0.909-1.967-0.275-0.856-0.577-1.511-0.909-1.968 0.594 0.093 1.582 0.246 2.971 0.464 1.219-0.014 2.125 0.028 2.719 0.121-0.979 1.064-2.153 2.096-3.525 3.1l3.397 3.572c1.953-2.127 3.778-4.077 5.475-5.837 0.788 0.123 1.766 0.375 2.924 0.761 0.988 0.155 1.782 0.278 2.375 0.37l0.742-4.751-5.939-0.927c0.156-0.994 0.324-2.079 0.51-3.267 1.751 0.472 3.471 1.15 5.159 2.022l1.633-4.612c-2.345-0.571-4.463-1.306-6.348-2.208l0.695-4.454 5.595 1.178 0.834-5.344-5.642-0.882c0.381-1.157 0.668-2.328 0.853-3.517 1.946 0.504 3.866 1.212 5.753 2.116l1.93-4.567-17.993-5.547-1.586 4.314c1.915 0.702 4.049 1.34 6.394 1.911-0.093 0.594-0.118 1.398-0.074 2.422-0.154 0.99-0.262 1.679-0.324 2.080-1.782-0.279-3.665-0.572-5.642-0.882l-0.788 5.048c1.976 0.309 3.86 0.603 5.642 0.882l-0.603 3.859c-0.594-0.093-1.454-0.432-2.58-1.010-1.356-0.416-2.314-0.771-2.876-1.058l-1.335 4.659c0.394 0.060 1.071 0.266 2.033 0.621 1.945 0.503 3.302 0.919 4.064 1.242-0.216 1.382-0.433 2.77-0.65 4.158-1.782-0.278-3.763-0.587-5.94-0.927l-0.51 3.267c-0.91-1.967-1.737-3.821-2.478-5.558l0.594 0.093c1.802-10.266 3.706-19.194 5.703-26.791l-5.299-1.132c-0.663 2.938-1.543 7.259-2.635 12.973-0.725 3.332-1.224 5.892-1.503 7.673-1.046-2.398-2.274-4.918-3.686-7.572zM129.855 240.887l-5.188 0.103c0.495 3.318 0.296 7.85-0.602 13.595-0.34 2.175-1.385 3.025-3.135 2.552-1.782-0.279-3.42-0.839-4.909-1.679l-1.883 4.269c2.254 1.161 4.464 1.913 6.644 2.254 4.884 1.168 7.565-1.052 8.035-6.654 0.496-3.17 0.837-7.983 1.037-14.44zM121.987 254.26l0.305-3.907c-1.022 0.040-2.734-0.023-5.141-0.194-1.023 0.040-1.828 0.019-2.422-0.074l-0.305 3.907c2.663-0.192 5.188-0.104 7.563 0.268zM118.84 241.296l-3.23 3.145c2.191 1.56 4.15 3.282 5.885 5.178l2.84-2.599c-1.766-1.696-3.597-3.601-5.495-5.724zM139.501 208.324l-4.463 3.257c3.14 4.543 5.905 8.931 8.288 13.157-1.899 4.365-3.726 9.556-5.474 15.571-0.762-0.323-1.904-0.806-3.424-1.447-1.157-0.387-2.119-0.739-2.877-1.058l-1.429 5.251c2.509 0.796 4.643 1.433 6.394 1.91-0.155 0.989-0.504 2.555-1.038 4.706-1.357 6.071-2.34 11.088-2.958 15.052l5.298 1.131c1.113-7.127 2.298-13.434 3.561-18.912 3.071 1.088 5.933 2.243 8.584 3.47l1.429-5.251c-2.149-0.541-4.858-1.368-8.13-2.487 0.394 0.061 0.113-0.088-0.845-0.435 1.305-4.463 2.727-8.397 4.276-11.804 0.165 0.226 0.318 0.554 0.454 0.983 1.442 2.454 3.002 5.436 4.687 8.946l4.416-2.96c-0.336-0.463-0.822-1.245-1.457-2.357-1.216-2.623-3.026-5.948-5.44-9.974 3.428-6.362 8.015-11.73 13.769-16.102l-4.102-4.899c-5.802 5.985-10.067 11.203-12.786 15.646-0.47-0.885-1.278-2.229-2.413-4.026-0.667-0.918-2.109-3.372-4.323-7.368zM159.838 249.522l-3.304-4.166c-3.525 3.101-7.235 6.066-11.125 8.909l2.96 4.418c0.688-0.502 1.732-1.356 3.137-2.552 3.496-2.906 6.273-5.106 8.333-6.609zM173.905 243.201l1.494 6.012c10.56-1.393 15.935-4.005 16.127-7.825 0.38-1.156-0.054-3.559-1.31-7.201-1.060-3.617-1.319-6.495-0.78-8.639 1.645-6.639 9.805-8.916 24.488-6.822 9.072 1.615 17.007 4.072 23.793 7.364l1.726-5.205c-7.944-3.674-16.29-6.089-25.029-7.254-19.035-2.767-29.412 0.679-31.122 10.349-0.464 2.97-0.216 6.554 0.752 10.764 0.786 2.756 1.030 4.421 0.744 4.982-0.645 1.52-4.273 2.679-10.883 3.472zM191.892 262.435l-2.617-4.667c-0.231 0.164-0.46 0.33-0.688 0.501-4.683 2.716-8.437 4.662-11.255 5.847l2.869 5.012c2.714-1.811 6.609-4.041 11.691-6.693zM192.438 253.091l-1.178 5.596c2.739 0.627 6.471 1.413 11.191 2.356 3.302 0.92 5.744 1.505 7.332 1.753-2.963 3.388-5.911 6.681-8.843 9.875l4.241 4.008c3.056-3.986 6.619-7.994 10.698-12.019 1.946 0.504 5.069 1.294 9.363 2.375 1.946 0.504 3.399 0.936 4.361 1.29l1.429-5.252c-12.716-3.002-25.582-6.327-38.596-9.98zM205.24 219.804l-5.4 3.414c4.496 4.961 8.204 9.798 11.119 14.513-1.178 1.033-3.12 2.449-5.836 4.26-2.52 1.835-4.447 3.155-5.79 3.963l3.166 5.058c4.12-3.007 7.994-5.749 11.625-8.223 2.987 5.534 5.505 11.506 7.547 17.908l5.809-2.134c-2.211-6.633-5.093-12.863-8.641-18.687 5.625-3.585 11.067-6.59 16.312-9.012l-3.165-5.058c-5.276 2.621-10.615 5.643-16.015 9.058-3.147-4.552-6.722-9.567-10.731-15.061zM261.067 238.254l-1.27 6.19c2.176 0.339 5.459 0.748 9.845 1.233 4.551 0.71 7.932 1.133 10.143 1.279-0.37 2.376-0.726 4.649-1.067 6.83l-2.079-0.324c-12.734-1.585-19.793 2.081-21.184 10.99-0.292 7.049 0.449 13.349 2.22 18.901l5.716-1.54c-0.137-0.431-0.358-0.968-0.659-1.625 8.507 3.962 16.519 6.533 24.044 7.708 10.856 1.894 16.865-1.526 18.029-10.264 0.953-9.994-5.795-17.436-20.24-22.326 0.123-0.793 0.31-1.98 0.557-3.563 0.442-1.556 0.745-2.825 0.899-3.814 2.375 0.37 5.939 0.927 10.69 1.669 4.721 0.938 8.365 1.611 10.94 2.013l0.928-5.939c-7.356-0.949-14.597-1.974-21.724-3.087l2.124-9.708c8.416 1.923 17.007 4.072 25.76 6.456l1.522-5.846c-1.587-0.248-4.045-0.732-7.377-1.456-21.594-4.588-38.514-8.545-50.77-11.88l-1.818 5.799c9.072 1.615 17.724 3.376 25.947 5.268-0.154 0.989-0.417 2.673-0.788 5.048-0.176 2.406-0.353 4.203-0.538 5.393-6.5-1.22-13.122-2.355-19.849-3.405zM273.934 278.591c-4.995-1.796-9.081-3.548-12.259-5.259-0.014-1.22-0.156-2.259-0.427-3.108 2.8 0.232 7.469 0.862 14.002 1.882-0.093 0.594-0.247 1.582-0.464 2.97-0.447 1.55-0.729 2.723-0.853 3.516zM276.308 259.492l1.486 0.232c-0.571 2.345-1.023 4.603-1.363 6.784-5.151-0.804-9.998-1.561-14.55-2.272 1.899-4.369 6.707-5.95 14.428-4.744zM291.584 274.654l0.333-6.032c-2.805-0.238-5.986-0.631-9.548-1.186 0.309-1.981 0.633-4.060 0.973-6.235 10.152 3.814 14.914 9.019 14.293 15.615-0.348 4.813-3.671 6.623-9.975 5.439-2.181-0.34-4.622-0.926-7.332-1.752 0.371-2.376 0.773-4.951 1.205-7.721 3.759 0.586 7.112 1.208 10.050 1.873zM36.441 126.503l-4.321 2.732c6.547 8.971 11.468 15.904 14.761 20.8l4.795-2.658c-5.287-6.665-10.367-13.625-15.236-20.873zM45.117 105.226l-4.611 1.471c3.578 7.209 7.013 14.316 10.299 21.32-1.511-0.724-3.164-1.551-4.967-2.479l-2.879 4.418c6.596 3.464 12.972 5.755 19.124 6.879 6.968 1.088 10.837-0.825 11.603-5.733 0.572-5.751 0.287-11.719-0.855-17.897-0.603-4.475-3.537-6.959-8.813-7.461-1.269-0.199-2.547-0.315-3.838-0.356l0.721 4.736c0.816-0.037 1.7 0.022 2.651 0.17 2.45-0.104 3.834 1.408 4.158 4.543 0.826 6.13 1.137 10.885 0.936 14.26-0.604 2.827-2.477 3.911-5.619 3.26-0.951-0.148-2.364-0.452-4.239-0.905-0.45-0.234-0.836-0.373-1.151-0.423-2.781-6.113-6.951-14.711-12.52-25.802zM80.955 142.216l-3.245-4.157c-6.567 4.65-13.391 8.861-20.465 12.622l3.007 4.121c6.568-4.656 13.465-8.851 20.704-12.586zM93.368 149.993l-0.943 4.476c8.867 1.385 15.586 2.512 20.157 3.39-1.173 1.276-2.439 2.619-3.794 4.031l3.743 2.531c1.82-2.313 3.33-4.188 4.528-5.621 5.856 0.915 12.235 2.155 19.132 3.717l0.942-4.476c-17.239-2.854-31.828-5.539-43.763-8.050zM110.868 114.276l0.119 3.913c4.629-0.579 7.66-0.752 9.086-0.529 2.851 0.445 4.059 1.524 3.632 3.244-0.148 0.951-0.796 1.983-1.945 3.103-8.322-1.786-16.379-3.695-24.172-5.721l-0.979 4.714c3.801 0.592 10.72 1.997 20.757 4.214-0.209 0.291-0.484 0.491-0.825 0.601l3.467 2.731c0.156 0.024 0.329-0.031 0.512-0.163 0.341-0.11 0.525-0.245 0.549-0.401 3.529 2.334 5.231 3.897 5.108 4.691 0.106 0.341-0.549 0.402-1.975 0.179-6.627-1.197-13.29-3.212-19.986-6.040l-1.343 3.928c6.219 2.755 13.276 4.83 21.172 6.225 4.752 0.741 7.243-0.168 7.483-2.724 0.502-2.195-1.090-4.471-4.775-6.829 6.443 1.329 12.004 2.603 16.681 3.821l0.979-4.715c-2.22-0.347-5.758-1.063-10.616-2.144-2.985-0.63-5.19-1.054-6.614-1.276 0.829-1.171 1.345-2.387 1.543-3.653 0.508-4.3-1.996-6.962-7.514-7.986-2.873-0.286-6.323-0.014-10.346 0.818zM102.18 149.666l3.274-0.705c5.028 2.082 10.869 3.642 17.52 4.682 6.627 1.194 10.065-0.051 10.319-3.743 0.791-5.070-6.26-8.764-21.144-11.087-7.577-1.346-11.519-0.015-11.817 3.995-0.371 2.375 0.245 4.661 1.849 6.859zM124.042 149.915c-6.336-0.99-12.704-2.797-19.109-5.418l0.037-0.238c-0.022-1.949 1.859-2.548 5.635-1.797 12.352 1.929 18.262 4.068 17.736 6.42-0.017 1.13-1.448 1.478-4.299 1.033zM183.484 152.625l-3.668-3.007-2.070 2.353c-4.99-3.375-9.465-5.371-13.423-5.988-4.459-0.536-7.092 1.243-7.891 5.339-0.481 2.031 0.735 6.199 3.646 12.493-2.060-0.32-4.197-0.656-6.414-1l-0.505 4.788c6.406 0.514 14.864 1.427 25.367 2.745l0.468-4.551c-2.4-0.215-5.751-0.576-10.052-1.083 1.107 0.171 0.066 0.091-3.125-0.245-3.194-5.529-4.673-9.574-4.434-12.13 0.223-1.425 1.203-2.002 2.948-1.729 2.982 0.625 6.373 2.291 10.171 4.994-0.549 0.4-1.218 1.027-1.997 1.878-0.549 0.401-0.93 0.744-1.136 1.039l3.43 2.969c0.6-0.721 1.563-1.704 2.895-2.956 2.527-2.688 4.457-4.656 5.79-5.908zM158.054 120.669l-0.704 4.514c4.751 0.741 9.171 1.512 13.266 2.315-0.445 2.85-0.865 5.543-1.261 8.077-1.293-0.043-3.207-0.257-5.739-0.653-2.399-0.215-4.234-0.418-5.5-0.616l-0.505 4.788c2.426 0.053 5.8 0.255 10.125 0.608 0.316 0.050 0.553 0.087 0.713 0.111-0.099 0.63-0.328 1.568-0.683 2.813-0.198 1.265-0.427 2.202-0.683 2.814l4.952 1.015c0.321-2.058 0.721-4.108 1.202-6.139 2.691 0.42 5.542 0.865 8.553 1.336l0.304-5.063c-2.9-0.13-5.632-0.313-8.189-0.548 0.124-0.795 0.309-1.983 0.556-3.563 0.429-1.721 0.72-3.051 0.868-4.002 3.434 0.859 7.041 1.666 10.817 2.42l0.667-4.276c-10.272-1.763-19.857-3.746-28.76-5.95zM192.494 136.997l-4.951-1.017c-1.952 10.404-3.951 19.582-6.002 27.535l4.714 0.979c1.785-8.32 3.863-17.488 6.238-27.497zM202.425 126.38l-5.263-0.58c-1.131 15.559-2.995 31.656-5.591 48.285l5.263 0.579c1.047-10.87 2.909-26.964 5.591-48.284zM237.088 133.495l-4.314-0.43c0.011 11.355-0.91 22.975-2.764 34.853-0.494 3.167-1.761 4.509-3.793 4.033-1.9-0.297-4.112-1.212-6.63-2.738 0.347-2.221 0.783-4.501 1.313-6.853 1.631-0.072 3.978-0.029 7.038 0.127 0.315 0.050 0.553 0.087 0.713 0.111l0.356-3.838c-0.319-0.050-0.962-0.070-1.938-0.060-2.425-0.055-4.272-0.18-5.538-0.377 0.281-0.771 0.571-2.101 0.868-4.002 0.428-1.719 0.719-3.050 0.868-4.001 0.656-0.060 1.713-0.060 3.162 0.007 2.131-0.154 3.606-0.25 4.424-0.282l-0.394-3.712c-1.975 0.178-4.095 0.25-6.362 0.223 1.082-4.861 2.061-9.575 2.938-14.142l-4.44-1.18c-2.675 14.020-5.535 28.175-8.577 42.465l4.239 0.906 0.112-0.712c2.969 1.76 5.643 2.827 8.018 3.198 4.542 1.033 7.216-1.55 8.024-7.75 2.276-14.574 3.168-26.518 2.677-35.843zM262.491 136.002l-5.099-0.067c0.645 11.456-0.121 24.153-2.298 38.093-0.044 3.4-1.941 4.644-5.694 3.736-2.375-0.37-4.939-1.099-7.691-2.175 0.286-2.875 0.665-5.82 1.135-8.827 4.024-0.832 7.724-1.148 11.099-0.943l-0.794-4.261c-1.819 0.203-4.621 0.495-8.411 0.877-0.66 0.057-1.147 0.064-1.462 0.015 0.421-2.695 0.772-5.476 1.060-8.352 3.681-0.725 7.302-1.050 10.861-0.981l-0.794-4.262c-3.159 0.481-6.28 0.724-9.362 0.729 0.767-4.911 1.582-10.137 2.447-15.678l-4.513-0.704c-1.707 16.118-3.917 31.834-6.631 47.149l4.751 0.741 0.075-0.476c3.068 1.126 5.869 1.891 8.404 2.286 6.127 1.281 9.538-1.351 10.236-7.893 2.252-14.416 3.144-27.416 2.684-39.005zM283.978 149.577l-4.958 2.147c3.103 7.135 6.859 16.319 11.272 27.555-4.436-0.693-8.396-1.312-11.877-1.855l-0.98 4.715c1.741 0.272 4.207 0.572 7.402 0.911 3.326 0.519 5.791 0.82 7.401 0.912 1.296 3.123 2.435 6.221 3.416 9.295l4.922-1.909c-0.245-0.524-0.61-1.312-1.092-2.361-0.863-1.757-1.455-3.147-1.783-4.173 6.967 1.088 14.332 2.238 22.094 3.449l0.504-4.788c-10.026-1.242-18.211-2.356-24.543-3.344-2.755-6.271-6.449-15.851-11.087-28.743-0.351-0.87-0.582-1.471-0.69-1.813zM325.803 149.779l-2.459-4.52c-1.573 0.727-3.857 1.832-6.844 3.312-3.173 1.611-5.546 2.784-7.119 3.513-3.33-3.604-8.722-7.526-16.17-11.772l-3.244 3.63c5.806 3.339 10.613 6.846 14.418 10.525-1.942 0.993-4.827 2.325-8.656 4.002-1.573 0.728-2.717 1.279-3.422 1.656l2.459 4.522c4.245-2.258 8.57-4.502 12.975-6.736 3.839 4.493 5.642 8.018 5.406 10.577-0.347 2.216-2.579 3.005-6.697 2.363-3.46-0.704-6.789-1.712-9.992-3.022l-1.491 4.877c4.918 1.742 9.279 2.909 13.080 3.502 5.882 0.755 9.301-1.388 10.251-6.429 0.594-3.801-1.26-8.555-5.562-14.253 4.221-2.101 8.573-4.016 13.065-5.748zM339.905 195.055l3.274-0.704c6.863 3.827 13.303 6.214 19.324 7.154 12.060 1.719 19.283-4.534 21.668-18.762 2.269-17.653-4.494-27.873-20.279-30.664-15.498-2.579-24.316 3.504-26.455 18.258-1.26 8.077-0.44 16.315 2.468 24.719zM361.746 197.005c-5.836-1.074-12.044-3.911-18.627-8.505-1.362-6.867-1.728-12.846-1.094-17.936 1.695-11.904 8.549-16.837 20.562-14.798 13.279 2.233 18.786 11.122 16.52 26.671-1.625 11.427-7.409 16.281-17.363 14.567zM346.191 171.945l-1.269 3.452c2.007 0.637 4.19 1.222 6.541 1.751 0.326 1.024 0.785 2.229 1.381 3.623-0.635-0.099-1.495-0.318-2.577-0.647-1.11-0.173-1.969-0.391-2.575-0.646l-0.557 3.563c2.216 0.347 4.579 0.796 7.089 1.351 1.333 3.938 2.464 7.601 3.395 10.995l4.498-0.759c-0.327-1.024-0.817-2.56-1.471-4.61-0.813-2.075-1.381-3.623-1.709-4.647 1.401 0.378 3.355 0.847 5.865 1.404 1.692 0.587 2.933 0.945 3.726 1.068l0.594-3.801c-3.8-0.594-7.577-1.346-11.329-2.254-0.11-0.345-0.351-0.869-0.728-1.574-0.221-0.685-0.462-1.21-0.728-1.574 5.603 1.522 10.943 3.169 16.020 4.935l1.471-3.177c-1.721-0.433-3.264-0.916-4.64-1.454 2.598-1.055 5.434-2.072 8.507-3.053l-2.13-3.496c-3.671 1.697-7.663 3.344-11.966 4.947-0.925-0.307-2.325-0.69-4.202-1.142-2.010-0.642-3.476-1.113-4.402-1.417-0.487-1.050-0.89-2.086-1.219-3.111 2.909 1.1 5.923 2.058 9.043 2.872 4.407 0.847 6.956 0.112 7.646-2.214 0.238-2.56-1.442-5.334-5.026-8.329l-3.459 1.894c2.334 1.661 3.643 3.162 3.921 4.505 0.167 1-0.685 1.27-2.562 0.817-0.16-0.026-0.397-0.063-0.712-0.112-1.401-0.382-3.334-1.006-5.791-1.877-0.011-0.976 0.096-2.175 0.32-3.601 0.286-2.875 2.318-3.938 6.094-3.185 2.376 0.371 5.046 1.435 8.019 3.199l2.182-3.066c-2.629-1.87-6.002-3.128-10.12-3.772-6.176-0.964-9.558 0.943-10.14 5.719-0.148 0.95-0.231 1.99-0.245 3.125l-0.423 1.151c-0.486-1.048-1.136-2.612-1.945-4.683-0.596-1.394-1.079-2.443-1.455-3.147l-4.135 1.543c1.48 2.99 3.041 6.476 4.692 10.468-1.060-0.494-2.223-0.836-3.488-1.033zM353.816 187.006l-3.156-3.17c-1.541 1.543-3.382 2.957-5.529 4.248l2.954 2.894c1.123-0.962 2.94-2.218 5.457-3.772-1.967 1.154-1.872 1.086 0.274-0.2zM365.003 187.050l-3.459 1.894c1.704 1.562 3.393 3.207 5.070 4.928l3.46-1.893c-1.010-0.809-2.353-2.072-4.031-3.793-0.401-0.549-0.748-0.931-1.039-1.136z" />
<glyph unicode="&#xe626;" d="M287.555 444.608c-117.141 0-212.303-94.031-214.165-210.726h-63.154l85.22-94.973 85.196 94.973h-65.287c1.855 93.513 78.232 168.751 172.19 168.751 95.122 0 172.234-77.111 172.234-172.233s-77.112-172.234-172.234-172.234c-38.519 0-74.083 12.648-102.771 34.014l-29.197-30.516c36.373-28.488 82.185-45.474 131.968-45.474 118.304 0 214.207 95.904 214.207 214.209 0.002 118.305-95.903 214.208-214.207 214.208z" />
<glyph unicode="&#xe627;" d="M445.387 125.423c-22.827 22.778-51.864 34.536-78.973 34.536h-14.556l-31.952 32.004 127.81 128.019c31.952 32.005 31.952 96.014 0 128.019l-191.715-192.028-191.716 192.027c-31.952-32.004-31.952-96.014 0-128.019l127.811-128.017-31.953-32.004h-14.557c-27.11 0-56.146-11.759-78.974-34.538-40.811-40.721-46.325-101.242-12.315-135.175 14.985-14.951 35.144-22.247 56.498-22.247 27.108 0 56.145 11.757 78.973 34.536 26.792 26.732 38.371 62 33.542 92.674l32.692 32.744 32.688-32.744c-4.828-30.674 6.753-65.941 33.542-92.674 22.831-22.779 51.866-34.536 78.974-34.536 21.354 0 41.512 7.296 56.497 22.248 34.010 33.933 28.494 94.454-12.316 135.175zM176.512 57.231c-3.849-8.941-9.505-17.173-16.813-24.463-7.318-7.302-15.586-12.959-24.574-16.812-8.066-3.458-16.48-5.284-24.331-5.284-7.573 0-18.306 1.701-26.431 9.806-8.068 8.052-9.76 18.659-9.76 26.144 0 7.771 1.821 16.105 5.263 24.106 3.85 8.942 9.507 17.173 16.813 24.463 7.317 7.303 15.586 12.957 24.575 16.812 8.067 3.457 16.48 5.284 24.332 5.284 7.573 0 18.306-1.7 26.429-9.807 8.067-8.049 9.761-18.658 9.761-26.142 0.001-7.771-1.819-16.108-5.264-24.107zM256.002 146.702c-24.957 0-45.188 20.266-45.188 45.263s20.231 45.26 45.188 45.26 45.186-20.264 45.186-45.26c0-24.999-20.23-45.263-45.186-45.263zM427.636 20.479c-8.124-8.104-18.856-9.806-26.43-9.806-7.852 0-16.265 1.826-24.333 5.284-8.986 3.853-17.254 9.51-24.571 16.812-7.307 7.29-12.963 15.521-16.813 24.463-3.443 7.999-5.263 16.336-5.263 24.106 0 7.483 1.692 18.094 9.76 26.143 8.123 8.104 18.856 9.807 26.43 9.807 7.85 0 16.265-1.827 24.33-5.284 8.989-3.854 17.258-9.509 24.575-16.812 7.305-7.29 12.962-15.521 16.813-24.463 3.442-7.999 5.263-16.335 5.263-24.106-0.001-7.485-1.695-18.093-9.761-26.144z" />
<glyph unicode="&#xf005;" d="M475.428 290.572q0-6.286-7.428-13.714l-103.714-101.143 24.572-142.857q0.286-2 0.286-5.714 0-6-3-10.143t-8.714-4.143q-5.428 0-11.428 3.428l-128.286 67.428-128.286-67.428q-6.285-3.428-11.428-3.428-6 0-9 4.143t-3 10.143q0 1.714 0.572 5.714l24.572 142.857-104 101.143q-7.143 7.714-7.143 13.714 0 10.572 16 13.143l143.428 20.857 64.286 130q5.428 11.714 14 11.714t14-11.714l64.286-130 143.429-20.857q16-2.572 16-13.143z" horiz-adv-x="476" />
<glyph unicode="&#xf007;" d="M387.926 84.388q0-31.837-19.367-50.276t-51.469-18.438h-231.877q-32.102 0-51.469 18.438t-19.367 50.276q0 14.062 0.928 27.459t3.715 28.918 7.030 28.786 11.408 25.867 16.449 21.49 22.683 14.193 29.582 5.307q2.388 0 11.143-5.704t19.765-12.735 28.653-12.735 35.418-5.704 35.418 5.704 28.653 12.735 19.765 12.735 11.143 5.704q16.183 0 29.582-5.307t22.683-14.193 16.449-21.49 11.408-25.867 7.031-28.786 3.714-28.918 0.928-27.459zM303.028 321.306q0-42.184-29.847-72.031t-72.031-29.847-72.031 29.847-29.847 72.031 29.847 72.031 72.031 29.847 72.031-29.847 29.847-72.031z" horiz-adv-x="403" />
<glyph unicode="&#xf023;" d="M91.428 256h146.286v54.857q0 30.286-21.428 51.714t-51.714 21.428-51.715-21.428-21.428-51.714v-54.857zM329.143 228.572v-164.571q0-11.428-8-19.428t-19.428-8h-274.286q-11.428 0-19.428 8t-8 19.428v164.571q0 11.429 8 19.429t19.428 8h9.143v54.857q0 52.572 37.715 90.286t90.285 37.714 90.285-37.714 37.714-90.286v-54.857h9.143q11.428 0 19.428-8t8-19.428z" horiz-adv-x="329" />
<glyph unicode="&#xf024;" d="M107.255 365.834q0-16.47-14.641-25.163v-289.609q0-2.974-2.174-5.147t-5.147-2.173h-14.641q-2.974 0-5.147 2.173t-2.173 5.147v289.609q-14.64 8.693-14.64 25.163 0 12.124 8.578 20.702t20.703 8.579 20.703-8.579 8.579-20.702zM443.989 351.194v-174.543q0-5.719-2.86-8.808t-9.036-6.291q-49.183-26.536-84.412-26.536-13.954 0-28.252 5.033t-24.82 10.981-26.421 10.981-32.599 5.033q-43.922 0-106.144-33.399-3.889-2.059-7.549-2.059-5.948 0-10.293 4.346t-4.347 10.293v169.739q0 7.321 7.091 12.582 4.804 3.202 18.073 9.837 53.987 27.451 96.308 27.451 24.477 0 45.752-6.634t50.099-20.131q8.693-4.346 20.131-4.346 12.353 0 26.88 4.804t25.163 10.752 20.131 10.752 12.467 4.804q5.948 0 10.293-4.346t4.346-10.294z" />
<glyph unicode="&#xf045;" d="M402.286 174.572v-74q0-34-24.143-58.143t-58.143-24.143h-237.714q-34 0-58.143 24.143t-24.143 58.143v237.714q0 34 24.143 58.143t58.143 24.143h72.857q3.714 0 6.429-2.715t2.714-6.428q0-7.714-7.428-9.143-22-7.429-38-17.143-2.857-1.143-4.572-1.143h-32q-18.857 0-32.285-13.428t-13.428-32.286v-237.714q0-18.857 13.428-32.286t32.285-13.428h237.714q18.857 0 32.286 13.428t13.428 32.286v61.143q0 5.428 5.143 8.286 8 3.714 15.428 10.572 4.572 4.572 10 2.286 6-2.572 6-8.286zM470 316.286l-109.714-109.714q-5.143-5.428-12.857-5.428-3.428 0-7.143 1.428-11.143 4.857-11.143 16.857v54.857h-45.714q-92.286 0-125.143-37.428-34-39.143-21.143-135.143 0.857-6.572-5.714-9.714-2.286-0.572-3.428-0.572-4.572 0-7.428 3.714-2.857 4-6 8.857t-11.285 19.572-14.143 28.428-11 32.572-5 34.857q0 14 1 26t4 25.714 8 25.143 13.428 23.286 19.572 21.143 27 17.572 35.572 13.857 45.572 8.715 56.143 3.143h45.714v54.857q0 12 11.143 16.857 3.714 1.428 7.143 1.428 7.428 0 12.857-5.428l109.714-109.714q5.428-5.428 5.428-12.857t-5.428-12.857z" horiz-adv-x="476" />
<glyph unicode="&#xf04b;" d="M345.615 212.844l-282.092-156.765q-4.886-2.761-8.391-0.637t-3.505 7.647v312.68q0 5.523 3.505 7.647t8.391-0.637l282.092-156.765q4.885-2.761 4.885-6.585t-4.885-6.585z" horiz-adv-x="403" />
<glyph unicode="&#xf04c;" d="M419.137 368.972v-299.086q0-5.523-4.036-9.558t-9.558-4.036h-108.759q-5.523 0-9.558 4.036t-4.036 9.558v299.086q0 5.523 4.036 9.558t9.558 4.036h108.759q5.523 0 9.558-4.036t4.036-9.558zM228.81 368.972v-299.086q0-5.523-4.036-9.558t-9.558-4.036h-108.758q-5.523 0-9.558 4.036t-4.035 9.558v299.086q0 5.523 4.035 9.558t9.558 4.036h108.758q5.523 0 9.558-4.036t4.036-9.558z" />
<glyph unicode="&#xf04d;" d="M419.137 368.972v-299.086q0-5.523-4.036-9.558t-9.558-4.036h-299.086q-5.523 0-9.558 4.036t-4.036 9.558v299.086q0 5.523 4.036 9.558t9.558 4.036h299.086q5.523 0 9.558-4.036t4.036-9.558z" />
<glyph unicode="&#xf14e;" d="M182.857 164.572l73.143 36.572-73.143 36.572v-73.143zM292.572 333.429v-154.857l-146.286-73.143v154.857zM374.857 219.429q0 42.286-20.857 78t-56.572 56.572-78 20.857-78-20.857-56.572-56.572-20.857-78 20.857-78 56.572-56.572 78-20.857 78 20.857 56.572 56.572 20.857 78zM438.857 219.429q0-59.714-29.428-110.143t-79.857-79.857-110.143-29.428-110.143 29.428-79.857 79.857-29.428 110.143 29.428 110.143 79.857 79.857 110.143 29.428 110.143-29.428 79.857-79.857 29.428-110.143z" />
</font>
</defs>
</svg>
